<svg xmlns="http://www.w3.org/2000/svg" width="375" height="80" viewBox="0 0 375 80" class="c-mainlogo__icon"><path d="M0,0H375V80H0Z" fill="none"></path> <g transform="translate(-236.406 -137.137)"><path transform="translate(76.683 1.516)" d="M528.707,197.45a6,6,0,0,0,4.259-1.7,5.984,5.984,0,1,0-8.464-8.462,5.821,5.821,0,0,0-1.755,4.257,5.974,5.974,0,0,0,5.961,5.909m-23.741-5.695a3.368,3.368,0,0,1-3.566-3.087,5.5,5.5,0,0,1,1.916-4.844,21.542,21.542,0,0,1,1.918-1.6,18.848,18.848,0,0,1,2.234-1.33,9.641,9.641,0,0,0,1.6-.959v7.505a4.059,4.059,0,0,1-4.1,4.312M519.979,195c-.48-.479-.746-1.916-.746-4.259,0-.9-.052-3.405-.106-7.505s-.054-6.121-.054-6.175c0-7.718-4.312-11.284-13.2-11.284-4.95,0-8.463,1.118-10.539,3.407a4.305,4.305,0,0,0-1.118,4.843,3.59,3.59,0,0,0,3.407,2.4c7.825.479,2.022-9.1,8.25-9.1,1.491,0,2.343.639,2.714,2.4a24.129,24.129,0,0,1,.48,6.334v.8c-1.064.852-4.578,1.7-7.825,2.714-4.684,1.225-10.487,4.152-10.114,10.646.159,4.418,3.566,7.293,9.262,7.293,3.832,0,7.664-1.97,9.209-5.429a5.807,5.807,0,0,0,3.993,4.2,16.987,16.987,0,0,0,4.95.534h1.277c.8,0,1.171-.266,1.171-.8,0-.425-.639-.638-1.011-1.011M485.326,165.78c-3.246,0-5.536,1.809-6.814,5.429l-.425-4.045c-.107-.852-.532-1.064-1.225-.693a36.041,36.041,0,0,1-9.794,3.3c-.586.107-.9.427-.9.905,0,.427.318.745,1.011.905,1.064.373,1.33,1.277,1.33,3.459v16.767c0,2.184-.266,3.141-1.33,3.407-.693.214-1.011.532-1.011.905,0,.532.372.745,1.064.693,1.65-.161,3.886-.214,6.707-.214,2.927,0,5.216.054,6.866.214.745.052,1.118-.161,1.118-.693,0-.373-.373-.691-1.064-.852-1.545-.266-2.182-1.171-2.182-3.461v-14.85c0-4.1.8-6.121,2.448-6.121s2.395,1.33,2.555,2.768a3.3,3.3,0,0,0,3.407,2.768,4.376,4.376,0,0,0,4.152-2.289,5.186,5.186,0,0,0,.213-5.057c-1.064-2.182-3.087-3.246-6.121-3.246m-20.652,27.573c-.266-.266-.693-.266-1.278-.054a3.17,3.17,0,0,1-1.916.161c-.8-.266-1.225-1.278-1.225-2.982v-21.5h3.3c.691,0,1.011-.425,1.011-1.277,0-.8-.32-1.225-1.011-1.225h-3.3v-5.8c0-.693-.372-1.011-1.118-1.011a1.133,1.133,0,0,0-1.118.8,9.982,9.982,0,0,1-3.566,4.259,8.884,8.884,0,0,1-5.162,1.756h-.373c-.8,0-1.011.32-1.011,1.225,0,.852.318,1.277,1.011,1.277h1.171V190c0,4.95,2.607,7.452,7.771,7.452,3.034,0,5.27-.957,6.707-2.821a.983.983,0,0,0,.107-1.277m-17.514,1.863c-1.223-.32-2.554-1.437-3.991-3.407l-7.825-10.859h-.054l-.479-.745,4.045-5.643c2.662-3.779,5.27-5.909,7.878-6.493.693-.107.959-.427.905-.905-.054-.532-.427-.746-1.171-.693-1.916.107-3.673.161-5.323.161-2.077,0-4.152-.054-6.28-.161-.693-.054-1.118.213-1.066.693.053.372.427.638,1.118.905,1.97.691,2.45,2.607.161,6.493L433,177.7l-4.525-6.228c-1.064-1.489-1.011-3.034.107-3.405.693-.214,1.011-.534,1.011-.905,0-.532-.372-.746-1.064-.693-1.543.161-3.993.213-7.293.213-3.566,0-6.175-.052-7.825-.213-.691-.054-1.064.161-1.064.693,0,.372.32.691,1.012.905,1.223.318,2.554,1.436,3.991,3.405l7.771,10.753h.054l.586.852-4.045,5.643c-2.928,4.1-5.218,5.855-7.932,6.493-.639.107-.905.427-.852.905s.427.745,1.171.693q2.874-.161,5.269-.161c1.97,0,4.1.054,6.334.161.693.052,1.066-.214,1.012-.693-.054-.373-.373-.639-1.064-.905-2.077-.691-2.45-2.607-.16-6.493l2.077-3.141,4.471,6.227c1.064,1.491,1.011,3.035-.107,3.407-.693.214-1.011.532-1.011.905,0,.532.372.745,1.064.693,1.65-.161,4.045-.214,7.293-.214,3.673,0,6.28.054,7.825.214.691.052,1.064-.161,1.064-.693,0-.373-.32-.691-1.012-.905m-35.983-8.57a1.045,1.045,0,0,0-1.171.8c-1.7,4.684-3.246,6.868-7.027,6.868h-6.6c-1.225,0-1.862-.693-1.862-2.023V177.544h3.673c4.311,0,5.961,1.489,6.173,4.523.053.693.373,1.012,1.012,1.012.586,0,.852-.373.745-1.118-.107-1.916-.159-3.78-.159-5.643q0-2.874.159-5.748c.107-.746-.159-1.118-.745-1.118-.639,0-.959.318-1.012,1.011-.159,2.98-1.916,4.577-6.173,4.577h-3.673V160.723H402.5c1.97,0,3.407.373,4.259,1.171a10.526,10.526,0,0,1,2.448,4.523,1.138,1.138,0,0,0,1.171.852c.586,0,.8-.372.691-1.118-.266-2.236-.425-4.95-.532-7.239-.054-.691-.479-.957-1.171-.9-1.489.159-3.779.213-6.866.213H382.275c-.639,0-.959.266-.959.745,0,.32.32.586,1.011.852,1.066.373,1.278,1.225,1.278,3.62V191.6c0,2.343-.212,3.248-1.278,3.62-.691.266-1.011.532-1.011.905,0,.479.32.693,1.011.693H402.98c3.087,0,5.377.052,6.868.213.745.054,1.171-.213,1.223-.905.161-2.448.427-5.27.8-8.41.106-.691-.107-1.064-.693-1.064" class="c-mainlogo__extra"></path> <path d="M440.912,193.27a3.368,3.368,0,0,1-3.566-3.087,5.5,5.5,0,0,1,1.916-4.843,21.526,21.526,0,0,1,1.916-1.6,19.072,19.072,0,0,1,2.236-1.332,9.451,9.451,0,0,0,1.6-.957v7.505a4.056,4.056,0,0,1-4.1,4.311m15.01,3.248c-.479-.48-.745-1.916-.745-4.259,0-.905-.054-3.407-.107-7.505s-.052-6.121-.052-6.175c0-7.718-4.312-11.285-13.2-11.285-4.95,0-8.464,1.118-10.539,3.407a4.308,4.308,0,0,0-1.118,4.844,3.586,3.586,0,0,0,3.406,2.395c7.825.48,2.023-9.1,8.251-9.1,1.491,0,2.343.639,2.714,2.395a24.159,24.159,0,0,1,.479,6.335v.8c-1.064.852-4.577,1.7-7.825,2.714-4.684,1.225-10.486,4.152-10.112,10.646.159,4.418,3.566,7.293,9.262,7.293,3.832,0,7.664-1.97,9.209-5.43a5.811,5.811,0,0,0,3.991,4.205,17.054,17.054,0,0,0,4.951.532h1.277c.8,0,1.171-.266,1.171-.8,0-.425-.639-.639-1.012-1.011m-31.139.213c-1.064-.266-1.33-1.225-1.33-3.407V168.678c0-.8-.373-1.064-1.171-.691a32.939,32.939,0,0,1-10.327,3.246q-.959.241-.959.959c0,.425.32.745,1.012.957,1.064.268,1.277,1.225,1.277,3.407v16.767c0,2.182-.213,3.141-1.277,3.407-.693.213-1.012.532-1.012.905,0,.532.373.745,1.064.691,1.491-.159,3.62-.213,6.335-.213,2.768,0,4.843.054,6.28.213.746.054,1.118-.159,1.118-.691,0-.373-.32-.693-1.011-.905m-2.289-31.619a4.477,4.477,0,0,0,0-7.345,7.4,7.4,0,0,0-9.048,0,4.53,4.53,0,0,0,0,7.345,7.609,7.609,0,0,0,9.048,0m-25.017,3.727c6.76-.373,1.33,10.646,9.1,10.168a2.929,2.929,0,0,0,2.82-2.236,5.687,5.687,0,0,0-1.064-5.377c-2.075-2.821-5.695-4.205-10.912-4.1-9.9.107-16.341,8.464-15.436,16.449a16.472,16.472,0,0,0,4.843,10.964,15.093,15.093,0,0,0,11.019,4.312,13.828,13.828,0,0,0,7.293-1.757,14.115,14.115,0,0,0,4.311-3.832.985.985,0,0,0,.107-1.278c-.266-.266-.693-.318-1.278-.052a14.4,14.4,0,0,1-6.6.745,10.805,10.805,0,0,1-8.889-8.41,23.769,23.769,0,0,1-.639-7.132,13.266,13.266,0,0,1,1.65-5.855,4.744,4.744,0,0,1,3.673-2.609m-17.246,27.892c-1.064-.266-1.277-1.225-1.277-3.407V179.91c0-8.462-3.354-12.616-10.859-12.616-4.312,0-7.4,1.811-9.262,5.484l-.479-4.1c-.107-.852-.534-1.064-1.225-.691a36.04,36.04,0,0,1-9.794,3.3c-.586.107-.905.427-.905.905,0,.425.32.745,1.012.905,1.064.372,1.33,1.277,1.33,3.459v16.767c0,2.182-.266,3.141-1.33,3.407-.639.266-.959.532-.959.905,0,.532.373.745,1.064.691,1.491-.159,3.62-.213,6.335-.213,2.768,0,4.843.054,6.28.213.693.054,1.064-.159,1.064-.691,0-.373-.32-.693-.957-.905-1.066-.266-1.332-1.225-1.332-3.407v-13.68c0-4.205,1.7-7.505,5.164-7.505,3.087,0,4.63,2.609,4.63,7.771v13.414c0,2.182-.213,3.141-1.277,3.407-.693.213-1.011.532-1.011.905,0,.532.372.745,1.118.691,1.436-.159,3.513-.213,6.28-.213s4.844.054,6.282.213c.745.054,1.118-.159,1.118-.691,0-.373-.32-.693-1.012-.905m-53.6-17.939a15.907,15.907,0,0,1,1.437-7.027c1.011-1.97,2.236-2.927,3.727-2.927a3.586,3.586,0,0,1,3.193,2.236,10.766,10.766,0,0,1,1.278,4.844q.078,1.915-.639,2.395a6.851,6.851,0,0,1-3.246.479Zm5.164-11.5a14.254,14.254,0,0,0-11.232,5.057,16.945,16.945,0,0,0,1.118,22.571,15.558,15.558,0,0,0,10.966,4.1,13.773,13.773,0,0,0,11.657-5.536.983.983,0,0,0,.105-1.278c-.266-.266-.691-.266-1.277-.054-3.886,1.437-7.346,1.332-10.273-.266s-4.844-4.418-5.75-8.516l-.372-2.077h17.353a1.008,1.008,0,0,0,1.064-.957c.639-3.886-1.97-13.255-13.36-13.042m-.427-1.489c2.555.213,3.461-1.171,1.757-2.716a7.892,7.892,0,0,1-2.077-2.661l-.425-.905-.532-1.171-.48-1.223a2.785,2.785,0,0,0-1.863-1.757,3.874,3.874,0,0,0-3.832.693c-1.437,1.118-1.757,2.555-.905,4.418,1.437,2.927,5,4.95,8.357,5.323m-16.287,30.926c-1.064-.266-1.332-1.225-1.332-3.407V159.9c0-.8-.479-1.064-1.17-.693a35.579,35.579,0,0,1-10.327,3.248q-.959.239-.959.957c0,.427.32.746,1.011.905,1.066.373,1.278,1.278,1.278,3.461v25.549c0,2.182-.213,3.141-1.278,3.407-.691.213-1.011.532-1.011.905,0,.532.373.745,1.064.691,1.491-.159,3.62-.213,6.335-.213,2.768,0,4.843.054,6.28.213.693.054,1.064-.159,1.064-.691,0-.373-.32-.693-.957-.905m-30.873-3.461a3.37,3.37,0,0,1-3.568-3.087,5.5,5.5,0,0,1,1.916-4.843,21.536,21.536,0,0,1,1.918-1.6,18.954,18.954,0,0,1,2.236-1.332,9.6,9.6,0,0,0,1.6-.957v7.505a4.057,4.057,0,0,1-4.1,4.311m15.01,3.248c-.479-.48-.746-1.916-.746-4.259,0-.905-.052-3.407-.106-7.505s-.053-6.121-.053-6.175c0-7.718-4.312-11.285-13.2-11.285-4.95,0-8.463,1.118-10.539,3.407a4.311,4.311,0,0,0-1.118,4.844,3.586,3.586,0,0,0,3.407,2.395c7.825.48,2.023-9.1,8.25-9.1,1.491,0,2.343.639,2.716,2.395a24.228,24.228,0,0,1,.479,6.335v.8c-1.064.852-4.578,1.7-7.825,2.714-4.684,1.225-10.487,4.152-10.114,10.646.161,4.418,3.566,7.293,9.262,7.293,3.832,0,7.664-1.97,9.209-5.43a5.812,5.812,0,0,0,3.993,4.205,17.044,17.044,0,0,0,4.95.532h1.277c.8,0,1.171-.266,1.171-.8,0-.425-.639-.639-1.011-1.011m-30.5-38.592c-3.886-.586-6.014,1.7-5.748,4.525a9.223,9.223,0,0,0,2.714,4.9,4.528,4.528,0,0,1,1.064,5l-6.653,17.087-8.889-24.7c-.8-2.289-.852-2.716-.161-3.354q.959-.4.959-.959c0-.479-.373-.745-1.118-.693-1.544.161-3.78.214-6.707.214-2.821,0-5.057-.054-6.707-.214-.693-.052-1.064.214-1.064.693,0,.425.32.745,1.011.905,1.118.213,2.077,1.33,2.875,3.407l13.414,33.587q.4.959,1.277.639l3.832-1.171.32-.106a1.432,1.432,0,0,0,1.012-.852l10.912-26.508c2.768-5.643,2.927-11.5-2.343-12.4" class="c-mainlogo__valencia"></path></g></svg>