<svg width="35" height="41" viewBox="0 0 35 41" fill="none" xmlns="http://www.w3.org/2000/svg">
<g clip-path="url(#clip0_114:33)">
<path d="M34.9858 19.0654C34.9526 18.7722 34.9289 18.4743 34.8768 18.1811C34.7905 17.8465 34.7412 17.5031 34.7298 17.1574C34.7298 17.1142 34.7298 17.0517 34.6824 17.0373C34.635 17.0228 34.6019 17.0805 34.5782 17.1286C34.4241 17.4738 34.2014 17.783 33.924 18.0369C33.8347 18.1179 33.7523 18.2063 33.6776 18.3012C33.5875 18.4262 33.5259 18.4406 33.4216 18.3349C33.2093 18.1314 33.0287 17.8964 32.886 17.638C32.7533 17.3737 32.7059 17.0805 32.5968 16.8114C32.5968 16.7633 32.5732 16.7008 32.5115 16.696C32.4499 16.6912 32.4357 16.7441 32.412 16.7825C32.1075 17.221 31.8784 17.7085 31.7342 18.2243C31.6726 18.4646 31.6346 18.4743 31.4545 18.3157C31.4335 18.2981 31.4114 18.282 31.3882 18.2676C31.0555 18.1069 30.7925 17.8282 30.6487 17.4842C30.6487 17.4458 30.6155 17.4025 30.5634 17.4025C30.5113 17.4025 30.497 17.4458 30.4781 17.4842C30.4601 17.5161 30.4458 17.55 30.4354 17.5851C30.2962 17.994 30.2572 18.4311 30.3217 18.8587C30.4187 19.6066 30.7512 20.3027 31.2697 20.8436C31.592 21.1945 31.938 21.5165 32.2793 21.8481C32.3257 21.8868 32.3624 21.9363 32.3863 21.9922C32.4102 22.0482 32.4207 22.1092 32.4167 22.1701C32.3883 22.4777 32.3835 22.7852 32.3835 23.0928C32.3908 23.1378 32.3825 23.1839 32.36 23.2233C32.3376 23.2627 32.3023 23.293 32.2603 23.3091C32.2082 23.3091 32.2034 23.386 32.1892 23.434C31.9882 23.9271 31.6971 24.3771 31.3313 24.7605C31.2839 24.823 31.2412 24.8278 31.1891 24.7605C31.1369 24.6932 31.0327 24.5779 30.9568 24.4818C30.7948 24.231 30.6627 23.9615 30.5634 23.6792C30.5634 23.6359 30.5634 23.5638 30.4781 23.5686C30.3928 23.5734 30.407 23.6455 30.3975 23.6888C30.37 23.813 30.322 23.9317 30.2553 24.0396C29.9984 24.4768 29.8549 24.9728 29.8382 25.4814C29.7962 26.0747 29.9004 26.6693 30.1415 27.2116C30.2837 27.5528 30.2837 27.5624 29.9188 27.5624H28.402C28.2029 27.5624 28.1887 27.5624 28.1887 27.3461C28.1887 24.5298 28.1887 21.7151 28.1887 18.902C28.1867 18.74 28.2058 18.5784 28.2456 18.4214C28.3388 18.1021 28.5318 17.8222 28.7954 17.6236C28.857 17.5755 28.8997 17.5275 28.8712 17.465C28.8428 17.4025 28.7812 17.4314 28.7243 17.4314H24.7095C24.6052 17.4314 24.5768 17.5083 24.6289 17.5851C24.6486 17.6114 24.6708 17.6356 24.6953 17.6572C24.874 17.8309 25.0154 18.04 25.1108 18.2715C25.2062 18.503 25.2536 18.752 25.2499 19.0029C25.2499 19.8632 25.2499 21.031 25.2499 21.8865L18.1399 14.6775H18.3106L19.3107 14.4997C20.0115 14.3589 20.7008 14.1645 21.3726 13.9182C21.9448 13.7205 22.4896 13.4492 22.9937 13.1108C23.1574 13.0128 23.2842 12.8623 23.3539 12.683C23.6801 11.8996 24.0471 11.1344 24.4536 10.3906C24.7854 9.71292 25.1361 9.04488 25.4869 8.37204C25.5008 8.35195 25.51 8.32893 25.514 8.30471C25.5179 8.28049 25.5164 8.25568 25.5095 8.23213C25.5027 8.20859 25.4907 8.1869 25.4745 8.16869C25.4583 8.15048 25.4382 8.13621 25.4158 8.12694C25.2514 8.0296 25.0657 7.97511 24.8754 7.96834C24.6542 7.95903 24.4336 7.99701 24.2278 8.07981C24.022 8.1626 23.8357 8.28837 23.681 8.44894C23.6567 8.48162 23.6237 8.50665 23.586 8.52111C23.5482 8.53558 23.5072 8.53888 23.4677 8.53064C23.3898 8.50939 23.3084 8.50531 23.2289 8.51865C23.1494 8.532 23.0736 8.56247 23.0067 8.60801C22.9398 8.65355 22.8832 8.71311 22.8409 8.78266C22.7986 8.85222 22.7715 8.93016 22.7614 9.01124C22.7457 9.07442 22.7347 9.13867 22.7282 9.20348C22.6998 9.3813 22.6998 9.58316 22.4628 9.62641C22.2574 9.67279 22.0475 9.69537 21.8371 9.69369C21.7702 9.69088 21.7054 9.66973 21.6495 9.63249C21.5935 9.59525 21.5486 9.54331 21.5195 9.48223C21.4626 9.32363 21.5622 9.25154 21.6712 9.17945C21.6831 9.16416 21.6975 9.15114 21.7139 9.141C21.7886 9.09325 21.8512 9.02838 21.8966 8.95161C21.9421 8.87484 21.9691 8.78832 21.9756 8.69902C21.9821 8.60971 21.9677 8.52012 21.9338 8.43745C21.8999 8.35478 21.8473 8.28134 21.7802 8.22306C21.7402 8.18519 21.7088 8.13889 21.6884 8.08741C21.6679 8.03592 21.6588 7.98052 21.6617 7.92509C21.6696 7.79298 21.6325 7.66214 21.5566 7.5545C21.4806 7.44687 21.3705 7.36899 21.2446 7.33395C21.1128 7.28023 20.9665 7.27588 20.8319 7.32168C20.6972 7.36748 20.5831 7.46044 20.5099 7.58386C20.4282 7.72267 20.3184 7.84226 20.1876 7.9347C20.1023 7.99233 20.0331 8.07123 19.9867 8.16381C19.9402 8.2564 19.918 8.35955 19.9221 8.46336C19.9269 8.61235 19.9641 8.75842 20.0312 8.89109C20.1402 9.11697 20.088 9.27557 19.8747 9.31882C19.6589 9.3676 19.4352 9.36926 19.2187 9.32368C19.0021 9.27811 18.7976 9.18635 18.6187 9.05449C18.4717 8.94876 18.3627 8.73249 18.4528 8.5739C18.5428 8.4153 18.5997 8.32398 18.6708 8.19903C18.8025 7.94671 18.8616 7.66194 18.8414 7.3772C18.8156 7.07749 18.6979 6.79349 18.5049 6.56499C18.4433 6.48328 18.3532 6.42081 18.3343 6.31027C18.295 5.99945 18.1792 5.70362 17.9977 5.44999C17.9771 5.41958 17.9661 5.38355 17.9661 5.34666C17.9661 5.30978 17.9771 5.27375 17.9977 5.24334C18.0987 5.03458 18.2442 4.85124 18.4238 4.7066C18.6033 4.56196 18.8124 4.45965 19.0358 4.40709C19.5101 4.28463 20.0071 4.28463 20.4815 4.40709C20.5928 4.44075 20.7114 4.44075 20.8227 4.40709C20.9002 4.37557 20.9794 4.34829 21.0597 4.32539C21.4294 4.23086 21.8046 4.16024 22.1831 4.11393C22.5943 4.06226 23.0115 4.09329 23.4108 4.20524C23.7825 4.30865 24.1455 4.44204 24.4962 4.60414C24.5577 4.62538 24.6244 4.62538 24.6858 4.60414C24.8043 4.60414 24.9228 4.56088 25.0366 4.54166C25.2744 4.47783 25.5215 4.45668 25.7665 4.47918C26.2113 4.57416 26.6395 4.73616 27.0369 4.95978L27.9327 5.44038C27.9706 5.44038 28.018 5.50286 28.056 5.44038C28.0686 5.42029 28.0753 5.39694 28.0753 5.3731C28.0753 5.34925 28.0686 5.32591 28.056 5.30581C28.04 5.28288 28.0257 5.25878 28.0133 5.23372C27.7405 4.81639 27.4101 4.4409 27.0321 4.11873C25.8215 3.02463 24.413 2.17916 22.8846 1.62922C22.6289 1.58449 22.3889 1.47358 22.1879 1.30722C22.1357 1.25435 22.0694 1.30722 22.0314 1.35528C22.0073 1.4162 21.9991 1.48244 22.0077 1.54752C22.0135 1.5923 22.004 1.63774 21.9807 1.67624C21.9574 1.71473 21.9218 1.74395 21.8798 1.75899C21.7328 1.81666 21.5906 1.88394 21.4437 1.93681C21.0183 2.11402 20.577 2.24921 20.126 2.34051C19.8168 2.4244 19.498 2.46642 19.178 2.46547C18.9699 2.47013 18.7652 2.41155 18.5902 2.29726C18.5448 2.27617 18.5064 2.24232 18.4794 2.19972C18.4525 2.15712 18.4381 2.10757 18.4381 2.05696C18.4381 2.00634 18.4525 1.95679 18.4794 1.91419C18.5064 1.8716 18.5448 1.83774 18.5902 1.81666C18.7064 1.74054 18.7968 1.63022 18.8493 1.50049C18.9018 1.37077 18.914 1.22787 18.8841 1.09095C18.8377 0.882309 18.716 0.698842 18.5428 0.57671C18.342 0.429245 18.1793 0.234665 18.0688 0.00960138C18.0688 -0.0336526 18.0214 -0.0817118 17.9645 -0.0720998C17.9077 -0.0624878 17.8934 -0.00481679 17.884 0.0432432C17.8508 0.264319 17.8129 0.485394 17.7986 0.70647C17.7749 1.02847 17.7418 1.06692 17.4289 1.06692C17.1161 1.06692 17.1256 1.06692 17.0924 0.744919C17.0592 0.422917 17.0165 0.264319 16.9834 0.00960138C16.9834 -0.0336526 16.9834 -0.0721018 16.9123 -0.0817138C16.8412 -0.0913258 16.8459 -0.0817125 16.8269 -0.0240405C16.8053 0.000112504 16.7877 0.0277136 16.7748 0.0576607C16.6938 0.283278 16.5402 0.474615 16.3387 0.600738C16.2338 0.665481 16.147 0.756524 16.0868 0.865106C16.0266 0.973687 15.995 1.09615 15.995 1.22071C15.995 1.34527 16.0266 1.46774 16.0868 1.57632C16.147 1.6849 16.2338 1.77594 16.3387 1.84069C16.3808 1.86053 16.4133 1.89645 16.4293 1.94058C16.4453 1.98471 16.4434 2.03346 16.424 2.07618C16.4063 2.14235 16.3735 2.20336 16.3282 2.25428C16.2829 2.30521 16.2264 2.34462 16.1633 2.36935C15.9792 2.42734 15.7874 2.45651 15.5945 2.45585C15.2444 2.44143 14.8974 2.38332 14.5612 2.28284C14.1116 2.16556 13.6711 2.01456 13.2435 1.83108C13.0255 1.74457 12.8928 1.64364 12.888 1.39373C12.888 1.25916 12.7837 1.21591 12.6937 1.30722C12.5468 1.43704 12.3685 1.52495 12.177 1.56194C11.3737 1.80874 10.6056 2.16096 9.89235 2.60965C9.43138 2.87399 8.98946 3.1711 8.5699 3.49876C8.32026 3.70702 8.07378 3.91848 7.83046 4.13315C7.46138 4.45296 7.14181 4.8272 6.88246 5.24334C6.85402 5.2914 6.8161 5.34907 6.88246 5.39713C6.94882 5.44519 6.97726 5.39713 7.02466 5.39713C7.23142 5.30554 7.43246 5.20122 7.62664 5.08474C7.95844 4.91172 8.2855 4.73871 8.63626 4.60414C8.88366 4.49167 9.15197 4.43431 9.42309 4.43593C9.67933 4.46051 9.93305 4.50714 10.1815 4.5753C10.277 4.59559 10.3763 4.58552 10.4659 4.54646C10.7935 4.38875 11.1346 4.26167 11.485 4.16679C11.7314 4.08517 11.9889 4.04301 12.2481 4.04184C12.4377 4.04184 12.6321 4.04184 12.8264 4.08029C13.2485 4.11879 13.6641 4.21082 14.0635 4.35423C14.1795 4.40034 14.3057 4.41363 14.4285 4.39267C14.7014 4.33513 14.9793 4.30614 15.258 4.30616C15.638 4.29799 16.0131 4.39432 16.3435 4.58491C16.5936 4.73554 16.7921 4.96031 16.9123 5.22892C16.9311 5.26479 16.9376 5.30602 16.9307 5.34606C16.9239 5.3861 16.904 5.42268 16.8743 5.44999C16.7275 5.64234 16.6298 5.86853 16.5899 6.10841C16.5473 6.28645 16.4627 6.45135 16.3435 6.58901C16.1616 6.8168 16.0584 7.09871 16.0496 7.39162C16.0553 7.77695 16.1815 8.1505 16.4098 8.45855C16.4432 8.50352 16.4635 8.55702 16.4685 8.61305C16.4735 8.66908 16.4631 8.72542 16.4383 8.77575C16.3917 8.87898 16.3179 8.96714 16.225 9.03046C15.8533 9.24657 15.4152 9.31345 14.9973 9.2179C14.9669 9.21097 14.9383 9.19753 14.9135 9.17847C14.8887 9.15941 14.8682 9.13517 14.8533 9.10739C14.8385 9.07961 14.8297 9.04894 14.8276 9.01743C14.8254 8.98592 14.83 8.95431 14.8409 8.92473C14.8653 8.85419 14.8938 8.78519 14.9262 8.71807C14.9925 8.58541 15.0135 8.43424 14.9861 8.28816C14.9587 8.14208 14.8843 8.00933 14.7745 7.91066C14.6076 7.77205 14.4608 7.61026 14.3385 7.43006C14.2631 7.33404 14.1597 7.26466 14.043 7.23185C13.9264 7.19905 13.8025 7.2045 13.6891 7.24744C13.5733 7.26628 13.467 7.3238 13.3871 7.41087C13.3073 7.49794 13.2584 7.60958 13.2483 7.72804C13.2418 7.88834 13.1835 8.04203 13.0824 8.16539C12.9931 8.25416 12.9387 8.37272 12.9291 8.49909C12.9195 8.62547 12.9554 8.75108 13.0302 8.85264C13.0972 8.94705 13.1789 9.02982 13.272 9.09775C13.3165 9.11983 13.3535 9.15504 13.378 9.19877C13.4026 9.2425 13.4135 9.29272 13.4094 9.34285C13.3977 9.39518 13.3714 9.44296 13.3335 9.48047C13.2957 9.51798 13.248 9.54362 13.1961 9.55432C13.0094 9.58552 12.8188 9.58552 12.6321 9.55432C12.5453 9.54549 12.4606 9.52278 12.3808 9.48704C12.336 9.46897 12.2968 9.43883 12.2676 9.39988C12.2384 9.36092 12.2202 9.31462 12.2149 9.26596C12.2149 9.18426 12.2149 9.09775 12.1818 9.01605C12.1201 8.56909 11.831 8.31918 11.4471 8.39607C11.4122 8.40551 11.3753 8.40464 11.3409 8.39357C11.3065 8.3825 11.2759 8.3617 11.2527 8.3336C11.1296 8.19374 10.9796 8.08088 10.8119 8.00198C10.6306 7.9034 10.4303 7.8459 10.2249 7.83345C10.0194 7.82101 9.81382 7.85391 9.62218 7.92989C9.3757 8.04043 9.33778 8.0981 9.48472 8.31918C9.51315 8.37204 9.52738 8.43452 9.55582 8.48739C9.88288 9.12659 10.2147 9.76098 10.5417 10.4098C10.7076 10.7318 10.8593 11.0586 11.0157 11.371C11.2126 11.7389 11.3822 12.1213 11.5229 12.5148C11.569 12.649 11.6472 12.7696 11.7504 12.8657C12.1608 13.2061 12.6258 13.4727 13.125 13.6538C13.8329 13.9475 14.5659 14.1743 15.3149 14.3315C15.6988 14.4084 16.0875 14.4949 16.4762 14.5574C16.5188 14.5574 16.6658 14.5574 16.7843 14.5862L9.67432 21.7952C9.67432 20.834 9.67432 19.5989 9.67432 18.6713C9.66536 18.4927 9.69852 18.3145 9.77106 18.1516C9.84361 17.9886 9.95343 17.8455 10.0914 17.7341C10.183 17.6629 10.2672 17.5824 10.3427 17.4938C10.3711 17.465 10.4138 17.4314 10.3853 17.3737C10.3569 17.316 10.319 17.3304 10.281 17.3304H6.20465C6.07193 17.3304 6.02927 17.3977 6.10511 17.5131C6.16034 17.5876 6.22222 17.6567 6.28997 17.7197C6.56983 18.0104 6.72782 18.3997 6.73079 18.8059C6.73079 22.0403 6.73079 25.2747 6.73079 28.5044C6.72973 28.5749 6.71184 28.6442 6.67865 28.7062C6.57833 28.8999 6.44698 29.0753 6.28997 29.2253C6.26627 29.2541 6.22835 29.2781 6.24731 29.3214C6.26627 29.3647 6.30419 29.3647 6.34211 29.3695H6.47957C8.13856 29.3695 9.79756 29.3695 11.4518 29.3695C11.5751 29.4033 11.7055 29.3989 11.8263 29.3569C11.9471 29.315 12.0527 29.2373 12.1296 29.134C12.3054 28.8481 12.4985 28.5736 12.7079 28.3121L17.5 33.171L25.2688 25.2892V28.3169C25.2715 28.4673 25.2373 28.6159 25.1693 28.7495C25.0757 28.9821 24.9237 29.1859 24.7285 29.3406C24.6289 29.4031 24.6906 29.4944 24.7285 29.4944H29.6723C29.7197 29.4944 29.786 29.4704 29.8097 29.5281C29.8334 29.5857 29.7718 29.605 29.7434 29.6386C29.5633 29.8645 29.3357 30.0471 29.1461 30.2634C28.8901 30.5574 28.6179 30.8366 28.3309 31.0996C28.2645 31.1573 28.2076 31.1813 28.1745 31.0612C28.1413 30.941 28.0702 30.9314 27.9706 30.9939C27.6403 31.1836 27.2946 31.3444 26.9373 31.4745C26.8188 31.5274 26.7856 31.4745 26.7999 31.3736C26.8164 31.1271 26.8164 30.8799 26.7999 30.6334C26.7974 30.4177 26.7556 30.2042 26.6766 30.0039C26.6245 29.8501 26.5629 29.8404 26.4491 29.951C26.3353 30.0615 26.25 30.1817 26.1363 30.2874C25.9467 30.4652 25.7428 30.6286 25.5532 30.8065C25.3312 31.0377 25.1223 31.2816 24.9276 31.537C24.6408 31.8804 24.4046 32.264 24.2261 32.676C24.0389 33.0889 23.9434 33.5384 23.9464 33.9928C23.9515 34.0982 23.9222 34.2024 23.8631 34.2893C23.804 34.3761 23.7183 34.4408 23.6193 34.4734C23.0492 34.7707 22.4504 35.0074 21.8324 35.1799C21.5051 35.2755 21.1727 35.3526 20.837 35.4106C20.799 35.4106 20.7516 35.4346 20.7232 35.4106C20.6948 35.3866 20.7232 35.3433 20.7564 35.3145C20.9217 35.102 21.0632 34.8715 21.1782 34.6272C21.2627 34.4699 21.3021 34.2918 21.292 34.113C21.2726 33.718 21.1336 33.3387 20.8938 33.0268C20.8517 32.9606 20.7903 32.9092 20.7181 32.8799C20.6459 32.8506 20.5665 32.8449 20.4909 32.8634C19.8451 33.0473 19.2519 33.3851 18.7609 33.8487C18.3291 34.2593 17.977 34.7483 17.7228 35.2905C17.6659 35.4106 17.5996 35.4971 17.4479 35.4539C17.4117 35.4457 17.3782 35.4281 17.3508 35.4028C17.3234 35.3775 17.3029 35.3454 17.2915 35.3097C17.0944 34.8709 16.834 34.4644 16.5188 34.1034C15.9937 33.5006 15.3146 33.0566 14.5565 32.8202C14.4725 32.7869 14.3799 32.7836 14.2938 32.8106C14.2077 32.8377 14.1332 32.8936 14.0825 32.9692C13.9748 33.1194 13.8827 33.2804 13.8076 33.4498C13.7079 33.675 13.6685 33.9228 13.6935 34.1684C13.7185 34.4139 13.8069 34.6485 13.9498 34.8483C14.0307 35.0007 14.1294 35.1427 14.2437 35.2712C14.2517 35.2757 14.2588 35.2818 14.2644 35.2892C14.27 35.2965 14.2741 35.305 14.2763 35.314C14.2785 35.3231 14.2789 35.3325 14.2774 35.3416C14.2758 35.3508 14.2724 35.3596 14.2674 35.3674C14.2437 35.401 14.2152 35.3674 14.182 35.3674L13.6038 35.2424C12.8165 35.0603 12.0552 34.7777 11.338 34.4013C11.2338 34.3485 11.1248 34.2956 11.0868 34.1707C11.0219 33.9724 10.9774 33.7679 10.9541 33.5603C10.9366 33.2803 10.8824 33.0039 10.7929 32.7385C10.5008 31.9712 10.0194 31.2927 9.39465 30.768C9.10302 30.5187 8.82456 30.254 8.56042 29.975C8.39926 29.7732 8.33764 29.7876 8.24758 30.0279C8.24758 30.0663 8.22388 30.1048 8.20966 30.148C8.11021 30.5477 8.10049 30.9648 8.18122 31.3688C8.18122 31.4553 8.18122 31.5129 8.0722 31.4649C7.70908 31.3208 7.3573 31.1489 7.01993 30.9506C6.87773 30.8449 6.84455 30.8593 6.79715 31.0371C6.77345 31.114 6.74975 31.1429 6.67865 31.0756C6.48905 30.8882 6.29471 30.7103 6.10985 30.5181C5.92499 30.3259 5.83019 30.2009 5.67378 30.0375C5.31496 29.6858 4.97629 29.3135 4.65942 28.9225C4.51248 28.7447 4.3608 28.5717 4.22808 28.3794C4.19364 28.3443 4.1743 28.2968 4.1743 28.2473C4.1743 28.1977 4.19364 28.1502 4.22808 28.1151C4.30901 28.0266 4.38496 27.9335 4.4556 27.8363C4.99214 27.1051 5.23598 26.1952 5.13816 25.2892C5.11067 24.9574 5.02898 24.6326 4.89642 24.328C4.77765 24.1183 4.67465 23.8998 4.58832 23.6744C4.58832 23.6215 4.58832 23.5446 4.50774 23.5446C4.42716 23.5446 4.44138 23.6263 4.42716 23.6744C4.29624 24.071 4.08834 24.437 3.8157 24.7509C3.75882 24.8134 3.72564 24.8086 3.6735 24.7509C3.62136 24.6932 3.51708 24.5442 3.43176 24.4433C3.14911 24.1418 2.93549 23.7808 2.80609 23.386C2.80609 23.3572 2.80609 23.3187 2.76817 23.3091C2.57857 23.2514 2.62122 23.088 2.61648 22.9486C2.61648 22.6891 2.61648 22.4296 2.58804 22.1701C2.57584 22.1239 2.57554 22.0754 2.58716 22.0291C2.59878 21.9828 2.62193 21.9403 2.6544 21.9057C3.02886 21.5309 3.40806 21.1656 3.77304 20.7811C4.11437 20.4046 4.37003 19.9567 4.52196 19.4691C4.65651 19.0609 4.70496 18.6287 4.66416 18.2003C4.65334 17.9527 4.5954 17.7095 4.49352 17.4842C4.49352 17.441 4.4556 17.3785 4.38924 17.3833C4.32288 17.3881 4.32288 17.4458 4.30392 17.4842C4.20912 17.7122 4.05913 17.9122 3.86784 18.0657C3.75883 18.1474 3.64032 18.2147 3.53604 18.2916C3.31326 18.455 3.30378 18.4598 3.23268 18.1811C3.09156 17.6781 2.87236 17.2012 2.58331 16.7681C2.55013 16.7153 2.52169 16.6384 2.44111 16.6528C2.36053 16.6672 2.37949 16.7489 2.35579 16.797V16.8258C2.26478 17.2904 2.06116 17.7248 1.76329 18.0898C1.68806 18.1829 1.60391 18.2682 1.51207 18.3445C1.50364 18.3538 1.49338 18.3613 1.48196 18.3664C1.47053 18.3714 1.45819 18.3741 1.44572 18.3741C1.43324 18.3741 1.42089 18.3714 1.40947 18.3664C1.39804 18.3613 1.38779 18.3538 1.37936 18.3445C1.2182 18.1523 1.04282 17.9744 0.867437 17.7966C0.668015 17.5817 0.507557 17.3328 0.39344 17.0613C0.39344 17.0228 0.355514 16.9604 0.298634 16.9796C0.241754 16.9988 0.246499 17.0517 0.251239 17.0997C0.268891 17.3029 0.252866 17.5075 0.203836 17.7053C0.100873 18.1607 0.0327342 18.6234 2.04174e-05 19.0894C-0.0513501 19.6809 0.0759378 20.2743 0.364994 20.7907C0.558516 21.158 0.844777 21.4665 1.19449 21.6847C1.45519 21.8337 1.52155 22.1076 1.63531 22.3575C1.62185 23.021 1.6583 23.6845 1.74433 24.3424C1.74433 24.4049 1.81069 24.501 1.74433 24.5298C1.67797 24.5587 1.60687 24.4721 1.54999 24.4193C1.49311 24.3664 1.36514 24.227 1.26086 24.1357C1.15658 24.0444 1.10443 24.0829 1.08547 24.1934C0.953914 24.7729 0.913917 25.3698 0.966973 25.962C1.04256 26.5404 1.2983 27.0792 1.69693 27.4999C2.05824 27.8906 2.50931 28.1845 3.0099 28.3554C3.0815 28.3749 3.14685 28.413 3.19951 28.4659C3.4839 28.8312 3.78252 29.1868 4.06692 29.5521C4.4319 30.0327 4.83006 30.4508 5.214 30.8978C5.36094 31.0708 5.5221 31.2246 5.68799 31.3784C5.93921 31.6667 6.21413 31.9407 6.49379 32.205C6.64325 32.3072 6.75627 32.4555 6.8161 32.6279C6.92775 33.0796 7.18049 33.4825 7.53658 33.7766C7.57924 33.815 7.66456 33.8342 7.64086 33.9063C7.61716 33.9784 7.54132 33.9688 7.48444 33.9832C7.24616 34.0345 7.0174 34.1237 6.80663 34.2476C6.58594 34.3553 6.37769 34.4874 6.18569 34.6417C6.08615 34.7426 6.08615 34.7618 6.21887 34.8051C6.43217 34.8819 6.65495 34.9252 6.86351 35.0213C7.33824 35.2589 7.82933 35.4613 8.3329 35.6269C8.72584 35.7492 9.14201 35.7739 9.54634 35.699C9.94629 35.6076 10.3379 35.4822 10.7171 35.3241C10.774 35.3241 10.8309 35.2712 10.8878 35.3001C11.1378 35.4213 11.3941 35.5288 11.6556 35.6221C12.0443 35.7759 12.4282 35.9441 12.8264 36.1027C13.3077 36.2633 13.7985 36.3933 14.2958 36.492C14.6703 36.5592 15.0447 36.6361 15.4239 36.6794C15.5837 36.6708 15.7438 36.6887 15.8979 36.7323C16.0798 36.8132 16.2666 36.8823 16.4572 36.9389C16.571 36.9774 16.5568 37.0158 16.4857 37.0879C16.1986 37.3667 15.8647 37.5913 15.4997 37.7511C14.8971 38.0181 14.2577 38.1899 13.6038 38.2606C13.1298 38.323 12.6984 38.424 12.2386 38.4576C12.2225 38.4561 12.2063 38.4606 12.1932 38.4703C12.1801 38.4801 12.171 38.4944 12.1675 38.5105C12.1675 38.5441 12.1675 38.5585 12.2102 38.573C12.3185 38.6446 12.4367 38.6997 12.561 38.7364C12.977 38.9003 13.4118 39.0101 13.855 39.0632C13.8929 39.0632 13.945 39.0632 13.964 39.1016C13.983 39.1401 13.9356 39.1641 13.9119 39.1929C13.6528 39.5391 13.4319 39.913 13.253 40.3079C13.1755 40.4769 13.132 40.6599 13.125 40.8462C13.125 40.976 13.1866 41.0096 13.2909 40.9471L13.7175 40.6876C14.1622 40.4119 14.5896 40.1085 14.9973 39.7793C15.3718 39.4861 15.7415 39.1881 16.1017 38.8709C16.3292 38.6595 16.5757 38.4576 16.7795 38.2365C16.9834 38.0155 17.2014 37.8617 17.41 37.6694C17.4668 37.6214 17.4953 37.6262 17.5474 37.6694C17.865 37.9434 18.1684 38.2365 18.4954 38.5249C18.8225 38.8133 19.069 39.0391 19.3676 39.2842C19.6662 39.5293 19.9506 39.7264 20.2302 39.9571C20.5611 40.2264 20.9078 40.4751 21.2683 40.702L21.7423 41C21.785 41.024 21.8371 41.048 21.8845 41C21.8999 40.9825 21.9112 40.9618 21.9178 40.9394C21.9244 40.917 21.9259 40.8933 21.9224 40.8702C21.8735 40.565 21.769 40.2716 21.6143 40.0051C21.464 39.7377 21.2962 39.4808 21.1119 39.2362C21.0597 39.1641 21.0503 39.1112 21.1688 39.1064C21.3804 39.0875 21.5898 39.0489 21.7944 38.9911C22.1322 38.9149 22.4599 38.7988 22.7709 38.645C22.8041 38.645 22.8609 38.6066 22.8515 38.5633C22.842 38.5201 22.7851 38.5009 22.7377 38.4961C22.5386 38.472 22.3395 38.448 22.1405 38.4144C21.6001 38.323 21.0597 38.2606 20.5241 38.1356C19.8423 37.9823 19.2027 37.6769 18.6518 37.2417C18.5855 37.1888 18.4812 37.136 18.4907 37.0447C18.5002 36.9533 18.6234 36.9533 18.6945 36.9293C18.8674 36.8527 19.0467 36.7916 19.2301 36.7467C19.5098 36.713 19.7989 36.7034 20.0786 36.6506C20.8152 36.5333 21.5401 36.35 22.2447 36.1027C22.8752 35.8672 23.5103 35.6221 24.1407 35.3674C24.1651 35.3554 24.1919 35.3492 24.2189 35.3492C24.246 35.3492 24.2728 35.3554 24.2971 35.3674C24.5384 35.4697 24.7853 35.558 25.0366 35.6317C25.3944 35.7564 25.7726 35.8103 26.1505 35.7903C26.5969 35.7321 27.0327 35.6091 27.4445 35.425C27.8643 35.2123 28.3002 35.0339 28.748 34.8916C28.8143 34.8916 28.9091 34.8916 28.9186 34.7954C28.9281 34.6993 28.8475 34.6657 28.7906 34.6272C28.4144 34.3655 27.998 34.169 27.5583 34.0457C27.5109 34.0457 27.4492 34.0457 27.435 33.9736C27.4208 33.9015 27.4682 33.8679 27.5156 33.8342C27.8845 33.5284 28.147 33.1106 28.2645 32.6424C28.285 32.5548 28.3294 32.4749 28.3925 32.4117C28.5205 32.3011 28.6532 32.1906 28.7764 32.0704C28.9755 31.8734 29.1746 31.6667 29.3642 31.4553C29.6533 31.1237 29.9567 30.8017 30.2506 30.4941C30.753 29.9318 31.1986 29.3358 31.6726 28.7399C31.8284 28.5436 32.0353 28.3954 32.2698 28.3121C32.3913 28.2703 32.5087 28.2172 32.6205 28.1535C32.982 27.9442 33.2968 27.6611 33.5448 27.3221C33.7732 27.0173 33.9348 26.6667 34.0188 26.2936C34.0922 25.8894 34.1066 25.4765 34.0615 25.0681C34.047 24.7983 34.0041 24.5308 33.9335 24.2703C33.8909 24.1501 33.8529 24.1357 33.7629 24.2222L33.45 24.501C33.4074 24.5442 33.3458 24.6211 33.2936 24.5923C33.2415 24.5635 33.2604 24.4673 33.2936 24.4001C33.3458 24.0256 33.3791 23.6486 33.3932 23.2706C33.3932 23.0111 33.3932 22.7468 33.3932 22.4825C33.3844 22.407 33.4011 22.3308 33.4406 22.2662C33.5097 22.1627 33.57 22.0534 33.6207 21.9394C33.6419 21.8812 33.6821 21.8321 33.7344 21.8C34.0157 21.6562 34.2581 21.445 34.4407 21.1848C34.6704 20.9063 34.8327 20.5771 34.9147 20.2236C35.0012 19.8442 35.0252 19.4528 34.9858 19.0654ZM24.7711 4.11393C24.8517 3.86882 25.0508 3.80634 25.2831 3.78231C25.6112 3.7753 25.9362 3.8478 26.2311 3.99378C26.6069 4.15928 26.9492 4.39393 27.2407 4.68584C27.312 4.75818 27.3785 4.83525 27.4398 4.91653C27.1506 4.8156 26.9041 4.64259 26.6292 4.53685C26.2754 4.3765 25.897 4.27896 25.5106 4.24849C25.3227 4.25503 25.1363 4.28571 24.956 4.33981C24.8754 4.33981 24.7806 4.39748 24.719 4.33981C24.6574 4.28214 24.7474 4.18602 24.7711 4.11393ZM21.0692 3.9361C21.2788 3.34566 21.698 2.8556 22.2447 2.56159C22.398 2.47895 22.5739 2.44971 22.7452 2.47837C22.9165 2.50703 23.0737 2.592 23.1927 2.72019C23.6522 3.16462 24.0537 3.66694 24.3872 4.21485C24.4092 4.25001 24.4282 4.28699 24.4441 4.32539C23.9967 4.09332 23.5173 3.93128 23.0221 3.84479C22.7672 3.81604 22.5105 3.8064 22.2542 3.81595C21.8645 3.8507 21.4779 3.91496 21.0977 4.00819C21.0313 4.04664 21.0408 4.00819 21.0692 3.9361ZM18.1873 4.44074C18.2905 3.98017 18.3446 3.50967 18.3485 3.03738C18.3485 2.92684 18.3817 2.86917 18.5191 2.90762C18.971 3.04918 19.4016 3.25293 19.7989 3.51318C20.0173 3.64489 20.2167 3.80663 20.3914 3.99378C20.4293 4.03703 20.4767 4.07067 20.472 4.14757C19.9461 4.06323 19.4094 4.0779 18.8888 4.19082C18.7017 4.2441 18.5252 4.33031 18.3674 4.44554C18.3345 4.47074 18.2996 4.49324 18.2632 4.51282C18.2431 4.51912 18.2216 4.51912 18.2015 4.51282C18.1778 4.4936 18.1826 4.45996 18.1873 4.44074ZM10.1294 4.34942C9.90254 4.29574 9.67313 4.25403 9.44206 4.22446C9.3653 4.20999 9.28656 4.20999 9.2098 4.22446C8.71103 4.33011 8.23137 4.5133 7.7878 4.76754C7.73566 4.79638 7.67879 4.8156 7.59821 4.85405C7.63312 4.72475 7.71646 4.61438 7.83046 4.54646C7.96565 4.41509 8.11331 4.29757 8.27128 4.19563C8.59667 3.9913 8.95418 3.84501 9.3283 3.76309C9.45802 3.72792 9.59418 3.72485 9.72533 3.75412C9.85648 3.78339 9.97877 3.84415 10.082 3.9313C10.1599 4.01742 10.2124 4.12398 10.2336 4.23888C10.2336 4.32539 10.191 4.36864 10.1104 4.34942H10.1294ZM13.8645 4.02742C13.8265 4.07548 13.7033 4.02742 13.6227 3.99378C13.2188 3.87804 12.8006 3.8214 12.3808 3.82556C11.8508 3.82779 11.3268 3.93896 10.8403 4.15237C10.7313 4.20524 10.6176 4.24369 10.4801 4.29655C10.7108 3.89869 10.9842 3.52797 11.2954 3.19117C11.4669 2.98921 11.6522 2.79971 11.85 2.62406C11.9698 2.53194 12.1138 2.47777 12.2639 2.46836C12.4141 2.45896 12.5636 2.49474 12.6937 2.5712C13.1815 2.83549 13.5709 3.25397 13.8028 3.76309C13.8218 3.83998 13.9071 3.95052 13.8455 4.02742H13.8645ZM16.7084 4.50802C16.6421 4.54647 16.5757 4.43112 16.5046 4.39267C16.2133 4.22651 15.8898 4.12648 15.5566 4.09951C15.1825 4.07807 14.8074 4.07807 14.4333 4.09951C14.6133 3.88315 14.8242 3.69525 15.0589 3.54201C15.3497 3.35834 15.6539 3.19766 15.969 3.06141C16.1126 2.99898 16.2618 2.95069 16.4146 2.91723C16.5046 2.88839 16.5568 2.91723 16.5615 3.03738C16.5615 3.44589 16.6279 3.8544 16.6753 4.2581C16.6753 4.34461 16.7795 4.44554 16.6895 4.50321L16.7084 4.50802ZM8.65048 23.6071L10.4706 21.7616V25.4526L8.65048 23.6071ZM10.8641 27.5864C10.5465 27.5864 10.2289 27.5864 9.91606 27.5864C9.89068 27.5904 9.86476 27.5883 9.84032 27.5803C9.81589 27.5723 9.7936 27.5588 9.77522 27.5406C9.75684 27.5224 9.74288 27.5002 9.73442 27.4756C9.72595 27.451 9.72322 27.4248 9.72645 27.399C9.72645 26.8079 9.72645 25.9284 9.72645 25.3084L10.4849 26.0774L11.9637 27.5816L10.8641 27.5864ZM11.2527 11.0586C11.0773 10.751 10.9351 10.429 10.7787 10.0974L10.0251 8.6556C9.99664 8.61242 9.97877 8.56299 9.97293 8.51141C9.97094 8.49778 9.97173 8.48388 9.97524 8.47056C9.97875 8.45724 9.98492 8.4448 9.99336 8.43399C10.0018 8.42319 10.0123 8.41425 10.0243 8.40772C10.0363 8.4012 10.0494 8.39724 10.063 8.39607C10.2622 8.37833 10.4626 8.41329 10.6446 8.49753C10.8265 8.58176 10.9838 8.71239 11.101 8.87667C11.1627 8.9824 11.2243 9.02566 11.3475 8.94876C11.3847 8.92447 11.4271 8.90962 11.4712 8.9055C11.5152 8.90137 11.5596 8.90809 11.6005 8.92507C11.6415 8.94205 11.6778 8.96881 11.7064 9.00305C11.7349 9.0373 11.7549 9.07802 11.7646 9.12178C11.7917 9.19585 11.8077 9.2736 11.812 9.35246C11.8092 9.48474 11.8487 9.61438 11.9248 9.72187C12.0009 9.82935 12.1094 9.90886 12.2339 9.94841C12.5142 10.0602 12.8146 10.111 13.1155 10.0974C13.2543 10.0847 13.3868 10.033 13.4982 9.94806C13.6096 9.86316 13.6954 9.74844 13.746 9.6168C13.7943 9.52051 13.8154 9.41255 13.8071 9.30485C13.7987 9.19714 13.7612 9.09387 13.6986 9.00644C13.6464 8.92473 13.5611 8.88148 13.4995 8.81419C13.3478 8.65079 13.3383 8.51142 13.4995 8.36724C13.5379 8.33826 13.5679 8.29929 13.5862 8.25445C13.6046 8.20961 13.6107 8.16057 13.6038 8.11252V7.98756C13.599 7.92583 13.6166 7.86446 13.6532 7.81493C13.6899 7.7654 13.7431 7.73109 13.8028 7.71843C13.8376 7.70463 13.8748 7.69805 13.9122 7.69908C13.9496 7.7001 13.9863 7.70871 14.0204 7.72439C14.0544 7.74007 14.085 7.76251 14.1103 7.79038C14.1356 7.81824 14.1552 7.85097 14.1678 7.88664C14.2166 8.02228 14.3127 8.1351 14.438 8.20383C14.5049 8.24562 14.5553 8.30982 14.5804 8.38531C14.6055 8.4608 14.6037 8.54282 14.5755 8.61715C14.4964 8.79095 14.4513 8.97864 14.4427 9.16984C14.44 9.23812 14.4541 9.30602 14.4839 9.36732C14.5138 9.42861 14.5583 9.48134 14.6134 9.52068C14.7514 9.62252 14.9167 9.67949 15.0874 9.68408C15.284 9.71049 15.4832 9.71049 15.6799 9.68408C16.0715 9.64338 16.4361 9.46281 16.7084 9.17465C16.8219 9.02149 16.8832 8.83512 16.8832 8.64358C16.8832 8.45204 16.8219 8.26568 16.7084 8.11252C16.5418 7.934 16.4489 7.69752 16.4489 7.45169C16.4489 7.20587 16.5418 6.96938 16.7084 6.79087C16.8575 6.5838 16.9595 6.34581 17.0071 6.094C17.051 5.91243 17.1567 5.75243 17.3057 5.64224C17.3599 5.60836 17.4241 5.59463 17.4872 5.6034C17.5503 5.61216 17.6084 5.64288 17.6517 5.69029C17.8066 5.84673 17.9094 6.04839 17.9456 6.26701C17.98 6.47323 18.0721 6.66508 18.211 6.8197C18.3783 7.00412 18.468 7.24749 18.4609 7.49796C18.4538 7.74842 18.3505 7.98618 18.1731 8.16058C18.0967 8.24835 18.045 8.35532 18.0233 8.47029C18.0016 8.58527 18.0108 8.70404 18.0499 8.81419C18.0984 8.98798 18.1894 9.14651 18.3146 9.27507C18.4397 9.40362 18.5948 9.49803 18.7656 9.54951C19.0174 9.65739 19.2885 9.71138 19.5619 9.70811C19.7623 9.71848 19.9626 9.68572 20.1497 9.61199C20.4957 9.463 20.5336 9.22751 20.4293 8.87187C20.4056 8.80458 20.3724 8.7373 20.344 8.66521C20.3055 8.5772 20.3028 8.47733 20.3365 8.38733C20.3703 8.29733 20.4377 8.22448 20.5241 8.18461C20.5722 8.16317 20.6148 8.13076 20.6485 8.08991C20.6822 8.04907 20.7061 8.00088 20.7185 7.94911C20.7285 7.90456 20.7481 7.86282 20.7761 7.82694C20.804 7.79106 20.8394 7.76194 20.8798 7.74169C20.9202 7.72143 20.9646 7.71056 21.0096 7.70987C21.0547 7.70917 21.0993 7.71866 21.1403 7.73765C21.3015 7.78091 21.3015 7.92028 21.311 8.04043C21.3032 8.11106 21.3125 8.18254 21.3381 8.2487C21.3637 8.31485 21.4048 8.37368 21.4579 8.4201C21.5859 8.51622 21.5622 8.67001 21.4579 8.79016C21.42 8.82861 21.3821 8.87187 21.3394 8.91031C21.269 8.96845 21.2123 9.04175 21.1734 9.12488C21.1344 9.20801 21.1142 9.29888 21.1142 9.39091C21.1142 9.48295 21.1344 9.57383 21.1734 9.65695C21.2123 9.74008 21.269 9.81337 21.3394 9.87151C21.4361 9.97548 21.5574 10.0526 21.6918 10.0955C21.8263 10.1384 21.9693 10.1457 22.1073 10.1166C22.3218 10.0887 22.5331 10.0387 22.7377 9.96764C22.8458 9.92594 22.9395 9.85333 23.0077 9.75864C23.0759 9.66394 23.1154 9.55123 23.1216 9.43417C23.124 9.32205 23.1465 9.2113 23.188 9.10736C23.2021 9.0712 23.2231 9.03823 23.2499 9.01039C23.2766 8.98254 23.3086 8.96037 23.3439 8.94517C23.3791 8.92996 23.4171 8.92202 23.4554 8.92181C23.4937 8.92161 23.5317 8.92913 23.5672 8.94396C23.7378 9.02085 23.7615 9.02085 23.8706 8.86706C23.9785 8.71525 24.1211 8.59224 24.2862 8.50854C24.4513 8.42484 24.634 8.38295 24.8185 8.38646C24.9892 8.38646 25.0224 8.43933 24.9465 8.58831C24.6811 9.11217 24.4156 9.63602 24.1407 10.1551C23.9843 10.4482 23.8516 10.751 23.6952 11.0442C23.643 11.1451 23.6051 11.1499 23.5151 11.073C23.2585 10.8454 22.9535 10.6809 22.6239 10.5924C22.1499 10.4434 21.6428 10.2992 21.1451 10.1935C20.6474 10.0878 20.0501 9.99166 19.5003 9.91957C18.9505 9.84748 18.3959 9.83307 17.846 9.79942C17.4277 9.77536 17.0083 9.77536 16.5899 9.79942C15.9883 9.82646 15.3885 9.88744 14.7935 9.98205C14.2462 10.0618 13.7035 10.1709 13.1677 10.3089C12.7265 10.4048 12.2949 10.5415 11.8784 10.7174C11.7019 10.7893 11.5409 10.8954 11.4044 11.0298C11.338 11.1547 11.3001 11.1451 11.248 11.0538L11.2527 11.0586ZM11.7931 12.3322C11.6841 12.0823 11.5893 11.8516 11.5039 11.5728C11.4708 11.4863 11.5513 11.419 11.6177 11.3662C11.726 11.2718 11.8494 11.1971 11.9827 11.1451C12.8131 10.8405 13.6679 10.609 14.5375 10.453C15.0874 10.3521 15.642 10.3185 16.1918 10.2464C16.4522 10.2077 16.7157 10.1948 16.9786 10.2079C17.4005 10.2079 17.7892 10.2079 18.1826 10.2079C18.576 10.2079 18.8841 10.2464 19.2349 10.2944C19.5856 10.3425 19.7942 10.3473 20.0738 10.3906C20.4909 10.453 20.9033 10.5492 21.3157 10.6453C21.8844 10.7697 22.4448 10.9302 22.9937 11.1259C23.1251 11.1849 23.2466 11.2643 23.3539 11.3614C23.3997 11.3936 23.432 11.4421 23.4443 11.4973C23.4566 11.5524 23.448 11.6103 23.4203 11.6593C23.335 11.8454 23.2606 12.0364 23.1975 12.2313C23.1264 12.4283 23.0695 12.4523 22.8989 12.3466C22.6035 12.1777 22.2835 12.0577 21.9509 11.991C21.4769 11.8612 21.0029 11.7459 20.5289 11.6642C20.0549 11.5825 19.5477 11.5007 19.0547 11.4383C18.6661 11.3902 18.2774 11.3325 17.8887 11.3181C17.5466 11.2845 17.2022 11.2845 16.8601 11.3181C16.6544 11.3492 16.4471 11.3685 16.2392 11.3758C15.988 11.3758 15.7652 11.4431 15.4997 11.4719C15.0684 11.5152 14.6371 11.6017 14.2105 11.6786C13.7033 11.7699 13.2009 11.8996 12.7032 12.039C12.4569 12.096 12.2226 12.1969 12.0111 12.337C11.9972 12.3547 11.9791 12.3686 11.9585 12.3773C11.9379 12.3861 11.9154 12.3894 11.8932 12.387C11.871 12.3846 11.8497 12.3766 11.8314 12.3636C11.8131 12.3507 11.7983 12.3333 11.7883 12.313L11.7931 12.3322ZM15.2485 12.039C14.9499 12.0967 14.6418 12.1063 14.3479 12.1736L13.6085 12.337C13.3668 12.3947 13.1345 12.4427 12.888 12.5196C12.7648 12.5581 12.6605 12.6205 12.5373 12.6542C12.4956 12.6636 12.4574 12.6847 12.4269 12.715C12.3965 12.7454 12.3751 12.7838 12.3653 12.826C12.3554 12.8681 12.3574 12.9122 12.371 12.9532C12.3847 12.9942 12.4094 13.0305 12.4425 13.0579L12.4993 13.13C12.433 13.1732 12.3808 13.13 12.3287 13.13C12.2449 13.0913 12.1668 13.0412 12.0964 12.981C11.9495 12.8657 11.959 12.7311 12.1296 12.6398C12.4316 12.4893 12.7497 12.3748 13.0776 12.2985C13.4805 12.1976 13.8882 12.1159 14.2911 12.0294C14.761 11.9313 15.2357 11.8575 15.713 11.8083C16.187 11.7507 16.6942 11.7074 17.1824 11.6882C17.6904 11.6776 18.1985 11.6985 18.704 11.7507C19.4736 11.8135 20.2384 11.9275 20.9934 12.0919C21.5689 12.2005 22.1337 12.3613 22.6808 12.5725C22.7435 12.5883 22.8023 12.6169 22.8536 12.6566C22.905 12.6962 22.9478 12.7461 22.9794 12.8032C22.9877 12.8195 22.9921 12.8376 22.9921 12.856C22.9921 12.8744 22.9877 12.8926 22.9794 12.9089C22.8504 13.0683 22.6649 13.1701 22.4628 13.1925C22.4919 13.1607 22.5188 13.127 22.5434 13.0915C22.571 13.0612 22.5902 13.0241 22.5992 12.9839C22.6083 12.9436 22.6067 12.9017 22.5947 12.8623C22.5827 12.8229 22.5607 12.7873 22.5309 12.7592C22.5011 12.7312 22.4645 12.7115 22.4249 12.7022C21.9299 12.5295 21.4229 12.3946 20.9081 12.2985C20.3393 12.1832 19.7705 12.0823 19.1922 12.0198C18.5869 11.9437 17.9772 11.9084 17.3673 11.9141C16.6576 11.9071 15.9483 11.9472 15.2438 12.0342L15.2485 12.039ZM14.4617 29.4992L12.5088 27.5192V19.6854L14.4617 17.7101V29.4992ZM18.4528 31.5706L17.4811 32.5606L16.5046 31.5706V15.6387L17.4811 14.6487L18.4528 15.6387V31.5706ZM22.4486 27.5192L20.4957 29.4992V17.7101L22.4486 19.6854V27.5192ZM24.4915 25.4526V21.7616L26.3069 23.6071L24.4915 25.4526ZM1.16605 19.2048C1.09039 19.4355 1.0551 19.6778 1.06177 19.9209C1.06527 19.941 1.06362 19.9618 1.05698 19.9811C1.05035 20.0005 1.03895 20.0178 1.02386 20.0314C0.937949 19.913 0.891457 19.7699 0.891131 19.6229C0.848472 19.3586 0.815292 19.0894 0.772632 18.8203C0.75894 18.7615 0.741524 18.7037 0.720492 18.6473C0.720492 18.6088 0.692058 18.5704 0.644658 18.5896C0.62787 18.597 0.614297 18.6104 0.606455 18.6272C0.598613 18.6439 0.597028 18.663 0.601992 18.6809C0.649392 18.9212 0.658876 19.1615 0.687316 19.4018C0.691509 19.4385 0.691509 19.4756 0.687316 19.5124C0.651976 19.9559 0.705176 20.4021 0.843736 20.8244C0.697769 20.7074 0.587627 20.5507 0.526158 20.3726C0.348155 19.9956 0.2682 19.5787 0.293897 19.1615C0.307842 18.8259 0.345865 18.4918 0.407659 18.1619C0.407659 18.109 0.40766 18.0273 0.49772 18.0177C0.587779 18.0081 0.578295 18.0802 0.611474 18.1186C0.715754 18.234 0.829517 18.3397 0.933797 18.455C1.03855 18.5394 1.11614 18.6535 1.15666 18.7827C1.19719 18.912 1.19881 19.0505 1.16131 19.1807L1.16605 19.2048ZM3.36066 20.315C3.59115 20.0856 3.78042 19.8173 3.91998 19.522C3.99049 19.3685 4.04299 19.2072 4.0764 19.0414C4.0764 19.0029 4.0764 18.9501 4.04322 18.9308C4.01004 18.9116 3.96738 18.9549 3.94842 19.0029C3.83821 19.2338 3.68719 19.4423 3.50286 19.6181C3.46968 19.6421 3.44599 19.6902 3.39385 19.6613C3.34171 19.6325 3.35592 19.5892 3.3654 19.5508C3.37723 19.4406 3.37723 19.3294 3.3654 19.2192C3.36566 19.1081 3.3947 18.999 3.4496 18.9029C3.5045 18.8067 3.58335 18.7269 3.67824 18.6713C3.84888 18.5512 4.03374 18.455 4.19964 18.3253C4.29444 18.2484 4.35132 18.2916 4.35606 18.4262C4.36974 18.8657 4.27526 19.3018 4.08114 19.695C3.92147 20.0512 3.70171 20.3765 3.43176 20.6562C3.34553 20.7365 3.25366 20.8104 3.15685 20.8773H3.12366C3.21372 20.6514 3.20425 20.4399 3.35593 20.2909L3.36066 20.315ZM1.75855 21.651H1.72537C1.60616 21.4645 1.52106 21.2578 1.47415 21.0407C1.3578 20.4304 1.37723 19.8016 1.53103 19.2C1.59963 18.9702 1.71967 18.7597 1.88179 18.5848C2.14823 18.2621 2.36844 17.9029 2.5359 17.5179C2.68632 17.6955 2.7978 17.9036 2.86296 18.1282C3.02941 18.5537 3.09123 19.0139 3.04309 19.4691C3.00625 20.0147 2.88135 20.5505 2.67337 21.0551C2.58379 21.2489 2.47415 21.4326 2.34631 21.603C2.27995 21.6943 2.21359 21.6799 2.17093 21.5789C2.07219 21.3305 2.04747 21.0581 2.09983 20.7956C2.18989 20.315 2.29891 19.8007 2.39845 19.3009C2.41541 19.1411 2.41541 18.98 2.39845 18.8203C2.39845 18.7818 2.39845 18.7434 2.34157 18.7386C2.28469 18.7338 2.30365 18.7722 2.29891 18.7963C2.18906 19.3312 2.04337 19.8578 1.86283 20.3726C1.78099 20.6385 1.72698 20.9123 1.70167 21.1896C1.70728 21.3366 1.72472 21.4829 1.75381 21.627L1.75855 21.651ZM2.49325 27.6826C2.49325 27.6826 2.43637 27.6826 2.40793 27.6826C2.26629 27.593 2.13579 27.4865 2.01925 27.3654C1.6304 27.0222 1.36248 26.5599 1.25611 26.0485C1.19994 25.7306 1.19994 25.4052 1.25611 25.0873C1.25611 25.0248 1.25611 24.9624 1.25611 24.9047C1.25611 24.847 1.35565 24.7653 1.42201 24.847C1.57843 25.0248 1.72063 25.2123 1.86283 25.4045C1.90837 25.4967 1.92805 25.5998 1.91971 25.7025C1.95001 25.8607 1.95958 26.0223 1.94815 26.1831C1.81575 25.993 1.71191 25.7841 1.64005 25.5631C1.61161 25.4862 1.61161 25.3468 1.51207 25.3613C1.41254 25.3757 1.45519 25.5054 1.45993 25.5775C1.48651 26.0737 1.66179 26.5499 1.96237 26.9424C2.12353 27.1587 2.27995 27.3798 2.43637 27.5816C2.49325 27.6057 2.51221 27.6345 2.48851 27.6585L2.49325 27.6826ZM3.61662 27.548C3.59292 27.6441 3.57396 27.7691 3.47916 27.7883C3.38436 27.8075 3.35592 27.6778 3.31326 27.6057C3.21501 27.4145 3.15538 27.2053 3.13788 26.9905C3.08566 26.4941 3.06666 25.9948 3.08101 25.4958C3.0715 25.3319 3.03959 25.1702 2.98621 25.0152C2.98621 24.972 2.94355 24.9047 2.88667 24.9143C2.82979 24.9239 2.83453 25.0008 2.84401 25.0441C2.86533 25.4234 2.86533 25.8037 2.84401 26.1831C2.84401 26.3897 2.81082 26.5916 2.81082 26.7983C2.81082 27.0049 2.83452 27.1923 2.84874 27.3846C2.84874 27.4182 2.84874 27.4567 2.84874 27.4711C2.84874 27.4855 2.79661 27.4471 2.77765 27.423C2.66559 27.2915 2.57878 27.1399 2.52169 26.9761C2.34121 26.5409 2.24777 26.0737 2.24677 25.6016C2.25162 25.1712 2.3419 24.7462 2.51221 24.352C2.54021 24.2768 2.57512 24.2043 2.61648 24.1357C2.69706 24.0156 2.76343 24.0108 2.82979 24.1357C2.89245 24.2542 2.96541 24.3668 3.04782 24.4721C3.22496 24.6921 3.38352 24.9269 3.52182 25.1738C3.66303 25.454 3.74993 25.7591 3.77778 26.0725C3.78132 26.5623 3.72075 27.0504 3.59766 27.524L3.61662 27.548ZM3.95316 27.846C3.89628 27.8171 3.91524 27.7595 3.92946 27.7066C4.00095 27.443 4.11121 27.1919 4.25652 26.9617C4.56506 26.4566 4.69229 25.8591 4.61676 25.2699C4.60829 25.1806 4.59244 25.0922 4.56936 25.0056C4.56936 24.972 4.54092 24.9335 4.48878 24.9431C4.43664 24.9527 4.45086 24.996 4.45086 25.0248C4.45086 25.1642 4.45086 25.2988 4.45086 25.4333C4.45035 25.723 4.39063 26.0093 4.27548 26.2744C4.27548 26.3128 4.2423 26.3657 4.19016 26.3561C4.13802 26.3465 4.14276 26.3032 4.13802 26.26C4.11398 25.9427 4.0519 25.6296 3.95316 25.3276C3.92946 25.2651 3.95316 25.2219 3.99582 25.1786C4.17246 24.9246 4.33087 24.6579 4.46982 24.3808C4.46982 24.352 4.46982 24.3087 4.5267 24.3087C4.58358 24.3087 4.57884 24.3616 4.59306 24.3904C4.78511 24.8022 4.88544 25.2518 4.88694 25.7073C4.87927 26.316 4.70357 26.9104 4.37976 27.423C4.28483 27.5528 4.18193 27.6764 4.07166 27.7931C4.07166 27.8075 4.00056 27.846 3.94842 27.8219L3.95316 27.846ZM9.57951 35.2905C9.32087 35.3927 9.04414 35.4395 8.76677 35.4279C8.4894 35.4164 8.2174 35.3466 7.96792 35.2232L6.82559 34.6993C6.72605 34.6513 6.79715 34.6128 6.82559 34.5936C6.94083 34.5247 7.0613 34.4653 7.18583 34.4158C7.43858 34.3148 7.70299 34.247 7.97266 34.2139C8.08347 34.2148 8.19242 34.2428 8.29024 34.2956C8.63626 34.4254 8.98702 34.5359 9.32356 34.6849C9.3743 34.7016 9.4189 34.7334 9.45154 34.7762C9.11584 34.8033 8.77811 34.7658 8.45614 34.6657C8.0779 34.5829 7.69108 34.5474 7.30433 34.5599C7.26167 34.5599 7.20005 34.5599 7.20005 34.6224C7.20005 34.6849 7.25693 34.6897 7.30433 34.6897C7.59826 34.6967 7.89062 34.7354 8.17648 34.8051C8.39926 34.8579 8.61256 34.9252 8.8306 34.9877C9.07091 35.0667 9.31876 35.1198 9.57004 35.1463C9.61732 35.1554 9.66343 35.1699 9.70749 35.1895C9.68853 35.2376 9.62218 35.2472 9.57478 35.2664L9.57951 35.2905ZM7.77358 32.5703L7.99636 32.7144C8.25103 32.8752 8.48507 33.0673 8.69314 33.2864C9.02947 33.6459 9.38387 33.9875 9.7549 34.31C9.78334 34.3341 9.82599 34.3581 9.83073 34.4158C9.66958 34.3971 9.51075 34.3616 9.35673 34.31C8.83316 34.1482 8.33037 33.924 7.85891 33.642C7.47146 33.3872 7.19497 32.9917 7.08629 32.5366C7.04128 32.2517 7.04128 31.9613 7.08629 31.6763C7.08629 31.5274 7.13368 31.4937 7.27588 31.5418C7.65647 31.6626 8.02347 31.8237 8.37082 32.0224C8.86642 32.3295 9.31512 32.7084 9.70276 33.147C9.94018 33.4023 10.1499 33.6826 10.3284 33.9832C10.3557 34.0327 10.3794 34.0841 10.3995 34.137C10.0358 34.065 9.69629 33.8995 9.41362 33.6564C9.1995 33.4774 8.99832 33.2831 8.81164 33.0749C8.55024 32.8167 8.24519 32.6084 7.91105 32.4597L7.84942 32.4309C7.81624 32.4309 7.77832 32.4309 7.75936 32.4309C7.74998 32.4377 7.74249 32.4468 7.73764 32.4574C7.73279 32.468 7.73075 32.4797 7.73171 32.4913C7.73266 32.5029 7.73659 32.5141 7.7431 32.5238C7.74962 32.5334 7.75849 32.5411 7.76885 32.5462L7.77358 32.5703ZM10.7503 33.6276C10.7124 33.6276 10.7029 33.5987 10.6839 33.5699C10.5702 33.3632 10.4896 33.1374 10.3616 32.9355C10.2006 32.6747 10.0114 32.433 9.79756 32.2146C9.53212 31.9455 9.27142 31.6667 9.02494 31.3736C8.9965 31.3447 8.96806 31.2919 8.9254 31.3111C8.88274 31.3303 8.88748 31.3976 8.9254 31.436C9.02495 31.6679 9.17771 31.8722 9.37095 32.032C9.56998 32.2234 9.7309 32.4518 9.84495 32.7048C9.57073 32.516 9.30798 32.3105 9.05812 32.0897C9.01711 32.0519 8.97267 32.0181 8.9254 31.9887C8.816 31.9238 8.7236 31.8331 8.65596 31.7244C8.58832 31.6156 8.54742 31.492 8.53672 31.364C8.48324 31.1504 8.45774 30.9306 8.46088 30.7103C8.45616 30.6736 8.45616 30.6365 8.46088 30.5998C8.46088 30.5614 8.46088 30.4989 8.5225 30.4796C8.58412 30.4604 8.60782 30.5133 8.63626 30.5421C9.01546 30.9026 9.3994 31.2534 9.77385 31.6139C10.1364 31.9475 10.42 32.3599 10.6034 32.8202C10.7045 33.0502 10.7685 33.2952 10.7929 33.5459C10.774 33.5507 10.7882 33.5939 10.7456 33.6036L10.7503 33.6276ZM15.7462 34.7618C15.357 34.4548 14.9217 34.2131 14.457 34.0457C14.3884 34.0186 14.3219 33.9864 14.2579 33.9496C14.073 33.8583 14.0446 33.8102 14.0825 33.6084C14.1136 33.4301 14.1923 33.2639 14.31 33.1278C14.3315 33.1033 14.3595 33.0858 14.3906 33.0772C14.4218 33.0687 14.4547 33.0695 14.4854 33.0797C14.7784 33.1421 15.0569 33.2612 15.3054 33.4305C15.6327 33.612 15.9315 33.842 16.1918 34.113C16.4499 34.4055 16.6727 34.7282 16.8554 35.0742C16.9295 35.1799 16.9782 35.3017 16.9976 35.4298C16.9962 35.449 16.9962 35.4683 16.9976 35.4875C16.9739 35.6173 16.9502 35.7855 16.8269 35.8095C16.7037 35.8335 16.6658 35.6653 16.5994 35.574C16.3545 35.255 16.0655 34.9734 15.7415 34.7378L15.7462 34.7618ZM17.3436 37.2561C17.1445 37.458 16.9549 37.6742 16.7416 37.8569C16.5283 38.0395 16.2676 38.299 16.0306 38.5009C15.6846 38.7892 15.3481 39.092 15.0021 39.39C14.578 39.7422 14.1297 40.0634 13.6606 40.3512C13.6606 40.3512 13.6275 40.3848 13.6038 40.3896C13.5801 40.3944 13.5374 40.4425 13.5042 40.4137C13.471 40.3848 13.5042 40.3368 13.5042 40.3079C13.6516 39.9752 13.8482 39.6673 14.0872 39.3948C14.2579 39.2218 14.4143 39.0295 14.5612 38.8421C14.5612 38.8421 14.6181 38.794 14.5992 38.7604C14.5802 38.7267 14.5423 38.7267 14.4996 38.7316C14.0637 38.7807 13.6225 38.7349 13.2056 38.597C13.6464 38.5249 14.0872 38.448 14.5233 38.3663C14.6629 38.3338 14.7993 38.2888 14.931 38.2317C15.5267 38.0205 16.0828 37.7085 16.5757 37.309L16.6089 37.2801C16.6768 37.1763 16.779 37.1003 16.8972 37.066C17.0153 37.0316 17.1417 37.0411 17.2535 37.0927C17.2915 37.0927 17.3578 37.0927 17.372 37.1408C17.3863 37.1888 17.3436 37.2225 17.3436 37.2561ZM17.282 36.7034C17.1208 36.7034 16.9644 36.5785 16.9786 36.4439C16.9945 36.2701 17.0568 36.1039 17.1587 35.9633C17.2204 35.8816 17.2725 35.8816 17.3199 35.9633C17.3925 36.1137 17.436 36.2769 17.4479 36.4439C17.4384 36.6217 17.3815 36.7034 17.2678 36.7034H17.282ZM17.7275 36.6698C17.6896 36.4199 17.6043 36.1892 17.5759 35.9345C17.5759 35.8912 17.5522 35.8528 17.6138 35.8624C17.7172 35.901 17.8095 35.9652 17.8823 36.0491C17.9551 36.1331 18.0062 36.234 18.0309 36.343C17.993 36.4968 18.0309 36.6698 17.8603 36.7419C17.7749 36.7563 17.7275 36.7467 17.7133 36.6698H17.7275ZM19.1116 37.8424C19.602 38.1305 20.135 38.3366 20.69 38.4528C21.0177 38.5295 21.3503 38.5825 21.6854 38.6114C21.7427 38.6127 21.7972 38.6369 21.8371 38.6787C21.5954 38.6787 21.3915 38.7748 21.1688 38.7892C20.9548 38.8181 20.7381 38.8181 20.5241 38.7892C20.4862 38.7892 20.4341 38.7892 20.4151 38.8229C20.3961 38.8565 20.4151 38.9046 20.4578 38.9334C20.6568 39.1305 20.8227 39.3515 21.0171 39.5534C21.2218 39.7993 21.3895 40.0747 21.5148 40.3704C21.5148 40.404 21.5432 40.4377 21.5148 40.4617C21.4863 40.4857 21.4532 40.4617 21.4247 40.4617C21.1925 40.3079 20.9507 40.1637 20.7279 40.0051C20.1334 39.565 19.5623 39.0934 19.0168 38.5922C18.7372 38.3567 18.4812 38.1116 18.2015 37.8569C18.0546 37.7206 17.9168 37.5745 17.7892 37.4195C17.7133 37.3378 17.8129 37.1504 17.9456 37.1071C17.9934 37.0904 18.0452 37.0892 18.0936 37.1039C18.1421 37.1186 18.1848 37.1483 18.2158 37.1888C18.4794 37.4458 18.776 37.6656 19.0974 37.8424H19.1116ZM18.5713 35.3818C18.4566 35.5095 18.352 35.6461 18.2584 35.7903C18.2015 35.872 18.1636 35.848 18.1257 35.7903C18.0548 35.7094 18.0103 35.6082 17.9984 35.5006C17.9866 35.393 18.0078 35.2844 18.0593 35.1895C18.2769 34.7724 18.5479 34.3862 18.8651 34.0409C19.0869 33.8181 19.3391 33.6287 19.614 33.4786C19.8628 33.3148 20.1344 33.1901 20.4198 33.1085C20.6 33.0701 20.6426 33.1085 20.7516 33.2431C20.8485 33.3993 20.9115 33.5746 20.9365 33.7573C20.9292 33.8003 20.9116 33.8408 20.8851 33.8752C20.8586 33.9096 20.8242 33.9368 20.7848 33.9544C20.562 34.0649 20.3108 34.1322 20.0975 34.2428C19.5265 34.5281 19.0097 34.9137 18.5713 35.3818ZM24.2592 33.6468C24.2293 33.4849 24.2474 33.3176 24.3114 33.1662C24.4615 32.6392 24.7366 32.1574 25.1124 31.7629C25.4063 31.4553 25.7428 31.1909 26.0604 30.9026C26.1742 30.8016 26.2785 30.6863 26.3875 30.5806C26.4965 30.4748 26.5249 30.4941 26.5676 30.6286C26.6103 30.7973 26.6103 30.9742 26.5676 31.1429C26.5434 31.3185 26.5005 31.4909 26.4396 31.6571C26.385 31.7996 26.287 31.9208 26.16 32.0032C25.8187 32.229 25.5485 32.5462 25.1693 32.7769C25.2749 32.5531 25.414 32.3472 25.5817 32.1666C25.7632 31.9973 25.9226 31.8051 26.0557 31.5946C26.0736 31.5678 26.088 31.5388 26.0983 31.5081C26.0983 31.4601 26.1268 31.3928 26.0983 31.364C26.0699 31.3351 26.032 31.4072 26.0035 31.436C25.8234 31.6283 25.6433 31.8301 25.4584 32.0176C25.0162 32.4351 24.6587 32.9364 24.4062 33.493C24.3493 33.5411 24.3351 33.618 24.2498 33.6468H24.2592ZM28.165 34.608C28.1982 34.608 28.2456 34.6416 28.2456 34.6897C28.2456 34.7378 28.1887 34.7474 28.1555 34.7618C27.7289 34.954 27.3165 35.1703 26.8804 35.3385C26.4231 35.5188 25.9158 35.5188 25.4584 35.3385C25.411 35.3385 25.3399 35.3097 25.3494 35.2376C25.3589 35.1655 25.4253 35.1895 25.4727 35.1847C25.9467 35.1222 26.3827 34.9492 26.8378 34.8435C27.0814 34.773 27.3333 34.7358 27.5867 34.733C27.6673 34.733 27.8047 34.733 27.8 34.6609C27.7953 34.5888 27.6625 34.608 27.5914 34.6032C27.0945 34.6061 26.6002 34.6772 26.122 34.8147C25.9359 34.8529 25.7441 34.8529 25.558 34.8147C25.7031 34.7153 25.8632 34.6406 26.032 34.5936C26.3069 34.4782 26.596 34.3917 26.8757 34.286C27.0309 34.2436 27.1945 34.2436 27.3497 34.286C27.6351 34.3383 27.9084 34.4443 28.1555 34.5984L28.165 34.608ZM27.5677 33.344C27.3469 33.5958 27.0709 33.7917 26.7619 33.9159C26.2772 34.155 25.7666 34.3357 25.2404 34.4542H25.1835C25.1811 34.4352 25.1843 34.4159 25.1927 34.3988C25.2012 34.3817 25.2145 34.3675 25.2309 34.3581C25.4992 34.1525 25.7497 33.9242 25.9798 33.6756C26.1742 33.4738 26.359 33.2719 26.5676 33.0797C26.7447 32.9265 26.9351 32.7897 27.1364 32.6712H27.1743C27.2217 32.6375 27.3023 32.6135 27.2644 32.5414C27.2265 32.4693 27.1648 32.5414 27.1174 32.5414C26.7133 32.7269 26.3493 32.9915 26.0462 33.32C25.7192 33.6766 25.3197 33.957 24.8754 34.1418C24.8138 34.1659 24.738 34.2283 24.6811 34.1659C24.6242 34.1034 24.6811 34.0457 24.738 33.9976C24.8757 33.7624 25.0344 33.5404 25.212 33.3344C25.547 32.949 25.9203 32.5995 26.3259 32.2915C26.6542 32.0582 27.0111 31.8691 27.3876 31.7292C27.4966 31.6811 27.6009 31.6235 27.7147 31.585C27.8284 31.5466 27.9232 31.5562 27.9469 31.71C28.0069 31.993 28.0031 32.286 27.9358 32.5673C27.8685 32.8485 27.7395 33.1108 27.5583 33.3344L27.5677 33.344ZM31.0658 27.8652C31.0137 27.8652 30.9805 27.8652 30.9473 27.8171C30.7039 27.5803 30.5104 27.2958 30.3785 26.9809C30.2089 26.5915 30.1186 26.1714 30.1131 25.7457C30.1014 25.2764 30.2074 24.8117 30.4212 24.3953C30.4639 24.3184 30.497 24.3039 30.5397 24.3953C30.6759 24.6724 30.8344 24.9376 31.0137 25.1882C31.0368 25.2117 31.0534 25.241 31.0617 25.2731C31.0701 25.3051 31.0698 25.3389 31.0611 25.3709C30.9664 25.6641 30.9044 25.9672 30.8762 26.2744C30.8762 26.3128 30.8762 26.3657 30.8288 26.3753C30.7814 26.3849 30.7483 26.3273 30.734 26.2888C30.6032 26.0086 30.5429 25.6998 30.5587 25.3901V25.0777C30.5587 25.0344 30.5587 24.9912 30.4923 24.9864C30.4259 24.9816 30.4402 25.0296 30.4307 25.0681C30.3357 25.4846 30.3521 25.9193 30.4781 26.3273C30.5885 26.6696 30.7483 26.9935 30.9521 27.2885C31.0291 27.4388 31.0804 27.6013 31.1038 27.7691C31.1072 27.7868 31.1043 27.8052 31.0956 27.8211C31.0869 27.8369 31.073 27.8491 31.0564 27.8556L31.0658 27.8652ZM31.099 20.0698C30.8609 19.7068 30.6995 19.2977 30.625 18.8683C30.6099 18.7085 30.6099 18.5476 30.625 18.3877C30.625 18.2964 30.6866 18.2676 30.7672 18.3205C31.0182 18.4608 31.2576 18.6215 31.483 18.8011C31.5295 18.8473 31.5661 18.9027 31.5906 18.9639C31.6151 19.0251 31.6268 19.0907 31.6252 19.1567C31.6252 19.2865 31.6252 19.4162 31.6252 19.5508C31.6252 19.5844 31.6252 19.6277 31.5825 19.6469C31.5398 19.6661 31.5161 19.6229 31.4877 19.5989C31.3154 19.4437 31.1725 19.2581 31.0658 19.051L31.0374 19.0029C31.0374 18.9645 30.9995 18.9164 30.9473 18.9356C30.8952 18.9549 30.9189 19.0029 30.9236 19.0462C30.9975 19.417 31.1603 19.7636 31.3976 20.0554C31.4673 20.1413 31.5434 20.2217 31.6252 20.2957C31.7768 20.4351 31.7721 20.6562 31.8385 20.8388C31.5201 20.6578 31.2601 20.3874 31.0895 20.0602L31.099 20.0698ZM32.2698 27.423C32.2414 27.4471 32.2366 27.5143 32.1845 27.4903C32.1323 27.4663 32.1513 27.4134 32.1845 27.375C32.2176 27.0201 32.2176 26.6629 32.1845 26.308C32.1845 25.9908 32.1845 25.6736 32.1845 25.3468C32.1845 25.2459 32.1845 25.1402 32.1845 25.0393C32.1845 24.9383 32.1845 24.9576 32.1418 24.9479C32.0992 24.9383 32.066 24.972 32.0518 25.0152C32.0117 25.1154 31.9846 25.2204 31.9712 25.3276C31.948 25.5913 31.9385 25.8559 31.9427 26.1206C31.9603 26.5656 31.914 27.0108 31.8053 27.4423C31.7614 27.5744 31.6903 27.6957 31.5967 27.7979C31.5493 27.8652 31.5209 27.7979 31.4972 27.7691C31.4122 27.5916 31.3546 27.402 31.3265 27.2068C31.2478 26.8327 31.2206 26.4494 31.246 26.0677C31.2811 25.5641 31.4756 25.0854 31.8005 24.7028C31.9459 24.5357 32.076 24.3555 32.1892 24.1646C32.2745 24.0012 32.3314 23.9964 32.4167 24.1646C32.57 24.4361 32.6713 24.7345 32.7153 25.0441C32.7549 25.2888 32.7755 25.5362 32.777 25.7842C32.7563 26.2053 32.6599 26.619 32.4926 27.0049C32.4454 27.1566 32.3662 27.296 32.2603 27.4134L32.2698 27.423ZM33.6017 24.8951C33.6681 24.8134 33.7534 24.8566 33.7724 24.972C33.8977 25.5551 33.8277 26.1639 33.5733 26.7021C33.4052 26.9939 33.1887 27.254 32.9334 27.4711C32.8433 27.5528 32.7485 27.6249 32.6537 27.697C32.5589 27.7691 32.5969 27.745 32.5637 27.697C32.5305 27.6489 32.5637 27.6345 32.5637 27.6105C32.7296 27.3894 32.9002 27.1683 33.0614 26.9424C33.365 26.5519 33.5317 26.07 33.5354 25.5727C33.5354 25.5199 33.5733 25.4285 33.4927 25.4189C33.4121 25.4093 33.4026 25.5054 33.3837 25.5631C33.3167 25.7919 33.2074 26.0056 33.0614 26.1927C33.0614 26.0485 33.0614 25.9043 33.0614 25.765C33.0709 25.3709 33.3647 25.1498 33.5922 24.8855L33.6017 24.8951ZM33.2984 21.7087C33.2462 21.5982 33.2984 21.5165 33.2984 21.4396C33.3008 21.0834 33.2447 20.7293 33.1325 20.3918C32.9746 19.9493 32.8401 19.4985 32.7296 19.0414C32.7249 18.9902 32.7249 18.9387 32.7296 18.8876C32.7296 18.8539 32.7296 18.8059 32.6679 18.8107C32.6063 18.8155 32.63 18.8635 32.63 18.8924C32.615 19.098 32.6262 19.3048 32.6632 19.5075C32.777 19.9593 32.867 20.4111 32.9476 20.8628C32.997 21.0981 32.9738 21.3431 32.8812 21.5645C32.8007 21.7375 32.7627 21.7375 32.649 21.5645C32.4002 21.2102 32.2215 20.8103 32.1228 20.387C31.9921 19.8843 31.9456 19.3627 31.9854 18.8443C32.026 18.4042 32.1743 17.9813 32.4167 17.614C32.4547 17.5563 32.4831 17.5275 32.5163 17.614C32.6728 17.964 32.8805 18.2881 33.1325 18.5752C33.4305 18.926 33.5981 19.3714 33.6065 19.8344C33.6065 20.041 33.6633 20.2525 33.6586 20.4591C33.6457 20.8983 33.5181 21.3262 33.2889 21.6991L33.2984 21.7087ZM34.3886 20.6129C34.3455 20.7027 34.2759 20.7766 34.1895 20.8244C34.2369 20.6129 34.2701 20.4015 34.3032 20.1948C34.3125 20.1021 34.3125 20.0087 34.3032 19.9161C34.2953 19.5381 34.3207 19.1601 34.3791 18.7866C34.3791 18.7386 34.4123 18.6665 34.3412 18.6521C34.2701 18.6377 34.2701 18.7098 34.2558 18.7578C34.1847 19.051 34.1705 19.3538 34.1184 19.6517C34.1003 19.7916 34.0569 19.9268 33.9904 20.0506C33.9051 19.9401 33.943 19.8151 33.924 19.7046C33.8909 19.4931 33.8435 19.2817 33.7961 19.075C33.7837 19.0257 33.7811 18.9744 33.7884 18.9241C33.7957 18.8738 33.8128 18.8254 33.8387 18.7818C34.0103 18.5281 34.209 18.2944 34.4312 18.085C34.4881 18.0273 34.526 18.0465 34.5592 18.085C34.5992 18.1996 34.6231 18.3193 34.6303 18.4406C34.8009 19.169 34.7119 19.9351 34.3791 20.6033L34.3886 20.6129Z" fill="white"/>
<path d="M10.774 9.03058C10.7507 9.02893 10.7274 9.03403 10.7068 9.04527C10.6863 9.05652 10.6693 9.07345 10.6579 9.09409C10.6465 9.11474 10.6411 9.13826 10.6423 9.16189C10.6436 9.18553 10.6514 9.20833 10.6649 9.22762C10.7175 9.37266 10.7859 9.51129 10.8688 9.64094C10.952 9.79829 11.0858 9.92207 11.248 9.99178C11.4233 10.0446 11.6272 9.93891 11.6272 9.77551V9.73225C11.5987 9.42947 11.0773 9.03538 10.774 9.03058Z" fill="white"/>
<path d="M23.5814 10.0206C23.6617 10.0124 23.7392 9.98664 23.8088 9.94517C23.8783 9.90369 23.9382 9.84745 23.9843 9.7803C24.0845 9.62529 24.1763 9.46485 24.2592 9.2997C24.2757 9.27395 24.2845 9.2439 24.2845 9.21319C24.2845 9.18247 24.2757 9.15242 24.2592 9.12668C24.2423 9.10335 24.2182 9.08641 24.1907 9.07858C24.1632 9.07074 24.1339 9.07245 24.1075 9.08342C23.9488 9.11494 23.7987 9.18113 23.6677 9.27741C23.5367 9.37369 23.428 9.49773 23.3491 9.64092C23.3252 9.68043 23.3126 9.7259 23.3127 9.77226C23.3128 9.81862 23.3256 9.86403 23.3497 9.90343C23.3738 9.94282 23.4082 9.97465 23.4491 9.99534C23.4901 10.016 23.5358 10.0248 23.5814 10.0206Z" fill="white"/>
<path d="M17.2773 6.99751C17.2941 7.03194 17.3202 7.0609 17.3524 7.08115C17.3846 7.1014 17.4218 7.11212 17.4597 7.11212C17.4977 7.11212 17.5348 7.1014 17.5671 7.08115C17.5993 7.0609 17.6253 7.03194 17.6422 6.99751C17.7099 6.88274 17.7456 6.75153 17.7456 6.61783C17.7456 6.48413 17.7099 6.35293 17.6422 6.23816C17.6043 6.17568 17.5711 6.1132 17.4906 6.1132C17.4506 6.11148 17.4112 6.12329 17.3786 6.14679C17.3459 6.17029 17.322 6.20413 17.3104 6.24297C17.2429 6.37485 17.2103 6.52221 17.2156 6.6707C17.1971 6.7836 17.219 6.89949 17.2773 6.99751Z" fill="white"/>
<path d="M17.7275 7.95882C17.7442 7.98652 17.7699 8.00744 17.8002 8.01797C17.8305 8.0285 17.8635 8.02797 17.8934 8.01649C17.9871 7.97095 18.0689 7.90373 18.1323 7.82026C18.1957 7.73678 18.2389 7.63938 18.2584 7.53589C18.2584 7.34365 18.1588 7.21389 18.0024 7.20908C17.9583 7.20768 17.9149 7.22121 17.8792 7.24753C17.7819 7.33387 17.7147 7.44965 17.6874 7.57775C17.66 7.70585 17.6741 7.83946 17.7275 7.95882Z" fill="white"/>
<path d="M17.2109 7.89141C17.2321 7.83973 17.2418 7.78393 17.2393 7.728C17.2338 7.59652 17.1981 7.46816 17.135 7.35313C17.1139 7.29968 17.0744 7.25572 17.024 7.22925C16.9735 7.20279 16.9154 7.19559 16.8601 7.20895C16.8038 7.22398 16.754 7.2577 16.7188 7.30474C16.6836 7.35178 16.6649 7.40942 16.6658 7.46848C16.6583 7.57418 16.6823 7.67974 16.7347 7.77144C16.7871 7.86313 16.8655 7.93674 16.9596 7.98272C17.0876 8.06442 17.1587 8.03559 17.2109 7.89141Z" fill="white"/>
<path d="M13.8028 8.56433C13.7961 8.65665 13.8124 8.7492 13.8502 8.83347C13.8687 8.88183 13.9024 8.92264 13.9461 8.94958C13.9898 8.97652 14.0411 8.98808 14.0919 8.98245C14.2057 8.98245 14.2436 8.86711 14.2626 8.77099C14.2799 8.66416 14.2684 8.55456 14.2294 8.45379C14.1725 8.31922 14.0351 8.2183 13.9355 8.24713C13.836 8.27597 13.8028 8.41534 13.8028 8.53069V8.56433Z" fill="white"/>
<path d="M20.8417 8.99217C20.8905 8.99282 20.9383 8.97848 20.9789 8.95103C21.0196 8.92358 21.051 8.88431 21.0692 8.83838C21.111 8.76043 21.1307 8.67227 21.1261 8.58367C21.131 8.53252 21.131 8.48102 21.1261 8.42987C21.1261 8.34817 21.0739 8.27128 20.9886 8.25205C20.9033 8.23283 20.8417 8.28569 20.7848 8.34817C20.7328 8.40838 20.6965 8.4808 20.6791 8.55885C20.6617 8.6369 20.6639 8.71812 20.6853 8.79513C20.69 8.88164 20.7232 8.98256 20.8417 8.99217Z" fill="white"/>
<path d="M16.8696 11.0586C17.0759 11.1811 17.3136 11.238 17.5522 11.222C17.7215 11.2185 17.8862 11.1651 18.0262 11.0682C18.0647 11.0469 18.0976 11.0165 18.1222 10.9795C18.1468 10.9426 18.1623 10.9002 18.1674 10.856C18.1725 10.8118 18.1671 10.7669 18.1516 10.7252C18.1361 10.6836 18.1109 10.6463 18.0783 10.6165C17.9045 10.474 17.6895 10.3932 17.4661 10.3862C17.2427 10.3793 17.0232 10.4466 16.8412 10.578C16.8055 10.6079 16.7772 10.6459 16.7588 10.6889C16.7403 10.732 16.7321 10.7788 16.7349 10.8256C16.7377 10.8725 16.7513 10.918 16.7747 10.9585C16.7981 10.999 16.8306 11.0333 16.8696 11.0586Z" fill="white"/>
<path d="M20.472 11.4238C20.7154 11.6044 21.0151 11.6897 21.3157 11.6641C21.3806 11.6584 21.4427 11.635 21.4956 11.5964C21.5484 11.5578 21.5899 11.5053 21.6157 11.4447C21.6415 11.384 21.6505 11.3174 21.6419 11.252C21.6333 11.1865 21.6074 11.1246 21.5669 11.0729C21.474 10.9669 21.3591 10.883 21.2304 10.8274C21.1017 10.7717 20.9625 10.7456 20.8227 10.7509C20.7818 10.7461 20.7404 10.7461 20.6995 10.7509C20.5573 10.7846 20.4103 10.8134 20.3582 10.972C20.3332 11.0505 20.3306 11.1346 20.3507 11.2145C20.3709 11.2945 20.4129 11.367 20.472 11.4238Z" fill="white"/>
<path d="M13.7175 11.6401C13.9736 11.6538 14.2269 11.5811 14.438 11.4335C14.4941 11.3914 14.5381 11.3349 14.5656 11.2699C14.5931 11.2049 14.603 11.1336 14.5944 11.0634C14.5894 11.0008 14.566 10.9412 14.5271 10.8923C14.4882 10.8434 14.4356 10.8076 14.3764 10.7894C14.2078 10.7381 14.0291 10.7315 13.8573 10.7702C13.6855 10.8089 13.5264 10.8917 13.3952 11.0105C13.337 11.065 13.2984 11.1376 13.2855 11.2168C13.2726 11.296 13.2862 11.3774 13.3241 11.4479C13.3586 11.5203 13.4162 11.5787 13.4877 11.6136C13.5591 11.6486 13.6401 11.6579 13.7175 11.6401Z" fill="white"/>
<path d="M19.2396 11.3518C19.3653 11.3518 19.4858 11.3012 19.5747 11.2111C19.6636 11.1209 19.7136 10.9987 19.7136 10.8712C19.7136 10.7438 19.6636 10.6215 19.5747 10.5314C19.4858 10.4413 19.3653 10.3906 19.2396 10.3906C19.1245 10.4037 19.0165 10.4536 18.9313 10.5331C18.846 10.6126 18.788 10.7176 18.7656 10.8328C18.7674 10.9634 18.8168 11.0887 18.9043 11.1845C18.9919 11.2804 19.1113 11.34 19.2396 11.3518ZM19.287 10.655C19.396 10.655 19.4576 10.727 19.4576 10.8616C19.4576 10.9962 19.4007 11.0779 19.2917 11.0779C19.2373 11.0633 19.1874 11.0349 19.1468 10.9954C19.1061 10.9559 19.0761 10.9065 19.0594 10.852C19.0736 10.7985 19.1042 10.751 19.1468 10.7164C19.1895 10.6818 19.2419 10.662 19.2964 10.6598L19.287 10.655Z" fill="white"/>
<path d="M22.6049 12.0631C22.724 12.0534 22.835 11.9985 22.9158 11.9094C22.9967 11.8203 23.0414 11.7036 23.041 11.5825C23.0496 11.5173 23.0432 11.451 23.0225 11.3888C23.0017 11.3265 22.967 11.2699 22.9212 11.2234C22.8753 11.1769 22.8195 11.1418 22.7581 11.1207C22.6967 11.0996 22.6313 11.0932 22.567 11.1019C22.5066 11.0997 22.4465 11.1111 22.391 11.1353C22.3355 11.1595 22.286 11.1959 22.246 11.2419C22.2061 11.2879 22.1768 11.3423 22.1601 11.4012C22.1435 11.4601 22.14 11.5221 22.1499 11.5825C22.1419 11.6459 22.1479 11.7103 22.1677 11.771C22.1874 11.8317 22.2203 11.8871 22.264 11.9332C22.3076 11.9793 22.3609 12.0149 22.4199 12.0374C22.4789 12.0599 22.5421 12.0687 22.6049 12.0631ZM22.6049 11.4191C22.6582 11.4178 22.7099 11.4377 22.7488 11.4745C22.7878 11.5113 22.811 11.5622 22.8135 11.6162C22.8087 11.6701 22.7842 11.7203 22.7447 11.7568C22.7052 11.7933 22.6536 11.8134 22.6002 11.8132C22.4959 11.8132 22.439 11.7363 22.4248 11.621C22.4231 11.5725 22.4391 11.5251 22.4697 11.4879C22.5003 11.4507 22.5434 11.4262 22.5907 11.4191H22.6049Z" fill="white"/>
<path d="M15.6751 11.3518C15.783 11.3455 15.8855 11.3021 15.9656 11.2287C16.0458 11.1553 16.0988 11.0563 16.1159 10.9481C16.1248 10.88 16.1191 10.8107 16.0992 10.745C16.0794 10.6792 16.0459 10.6186 16.0009 10.5671C15.956 10.5157 15.9007 10.4746 15.8388 10.4466C15.7769 10.4186 15.7097 10.4045 15.6419 10.405C15.5845 10.4063 15.5278 10.4191 15.4753 10.4429C15.4228 10.4666 15.3755 10.5008 15.3362 10.5433C15.2969 10.5858 15.2664 10.6359 15.2465 10.6906C15.2265 10.7452 15.2175 10.8034 15.2201 10.8616C15.2175 10.9875 15.2637 11.1093 15.3488 11.201C15.4339 11.2927 15.5511 11.3468 15.6751 11.3518ZM15.6751 10.6502C15.7353 10.6546 15.7918 10.6808 15.8345 10.7241C15.8771 10.7673 15.903 10.8247 15.9074 10.8856C15.9027 10.9388 15.8788 10.9883 15.8403 11.0247C15.8018 11.0611 15.7514 11.0817 15.6988 11.0827C15.6347 11.079 15.5744 11.0505 15.5303 11.0032C15.4862 10.9558 15.4617 10.8931 15.4618 10.828C15.4693 10.7816 15.4922 10.7391 15.5266 10.7077C15.5611 10.6762 15.6051 10.6576 15.6514 10.655L15.6751 10.6502Z" fill="white"/>
<path d="M12.3476 12.0343C12.406 12.0369 12.4643 12.0274 12.519 12.0062C12.5736 11.9851 12.6233 11.9527 12.6651 11.9113C12.7069 11.8698 12.7398 11.8201 12.7618 11.7652C12.7839 11.7103 12.7945 11.6514 12.7932 11.5921C12.7932 11.4646 12.7432 11.3424 12.6543 11.2523C12.5655 11.1621 12.4449 11.1115 12.3192 11.1115C12.2485 11.0906 12.1741 11.0867 12.1017 11.1C12.0293 11.1134 11.9609 11.1436 11.9021 11.1884C11.8432 11.2332 11.7954 11.2912 11.7625 11.358C11.7296 11.4247 11.7125 11.4983 11.7125 11.5729C11.7125 11.6475 11.7296 11.7211 11.7625 11.7878C11.7954 11.8546 11.8432 11.9126 11.9021 11.9574C11.9609 12.0021 12.0293 12.0324 12.1017 12.0457C12.1741 12.0591 12.2485 12.0552 12.3192 12.0343H12.3476ZM12.3476 11.3614C12.375 11.362 12.402 11.3681 12.4271 11.3793C12.4522 11.3906 12.4748 11.4067 12.4937 11.4267C12.5127 11.4468 12.5275 11.4705 12.5374 11.4964C12.5473 11.5223 12.5521 11.5499 12.5514 11.5777C12.5521 11.6054 12.5472 11.633 12.5369 11.6587C12.5266 11.6844 12.5111 11.7077 12.4916 11.7271C12.472 11.7465 12.4487 11.7616 12.4231 11.7714C12.3975 11.7813 12.3702 11.7857 12.3429 11.7844C12.2887 11.7813 12.2366 11.7619 12.1935 11.7284C12.1504 11.695 12.1182 11.6492 12.1011 11.5969C12.0917 11.4912 12.2196 11.3518 12.3476 11.3518V11.3614Z" fill="white"/>
<path d="M6.67392 15.6772C6.72985 16.0363 6.75049 16.4002 6.73553 16.7634C6.73553 16.946 6.73554 16.946 6.8967 16.946H9.60796C9.78334 16.946 9.77386 16.946 9.76912 16.7634C9.75416 16.4002 9.7748 16.0363 9.83074 15.6772C9.90883 15.2747 10.0412 14.8849 10.2242 14.519C10.2479 14.4613 10.2905 14.4084 10.2242 14.3508C10.1578 14.2931 10.1104 14.3219 10.0535 14.3508C9.72383 14.4967 9.40673 14.6704 9.10552 14.8698C8.95384 14.9659 8.91593 14.9611 8.82113 14.8073C8.69955 14.5918 8.56167 14.3861 8.40874 14.1922C8.39299 14.1642 8.37023 14.141 8.34276 14.1248C8.31529 14.1086 8.28409 14.1001 8.25233 14.1001C8.22057 14.1001 8.18936 14.1086 8.16189 14.1248C8.13442 14.141 8.11166 14.1642 8.09591 14.1922C7.94298 14.3861 7.80511 14.5918 7.68353 14.8073C7.58873 14.9611 7.55081 14.9659 7.39913 14.8698C7.09793 14.6704 6.78083 14.4967 6.45114 14.3508C6.39426 14.3267 6.33264 14.2979 6.2805 14.3508C6.22836 14.4036 6.2805 14.4613 6.2805 14.519C6.46344 14.8849 6.59583 15.2747 6.67392 15.6772Z" fill="white"/>
<path d="M27.3307 14.812C27.2076 14.5975 27.0698 14.392 26.9184 14.1969C26.8615 14.1248 26.8141 14.1008 26.7619 14.1056C26.7098 14.1104 26.6577 14.1056 26.6008 14.1969C26.4509 14.3931 26.3132 14.5986 26.1884 14.812C26.0983 14.9658 26.0604 14.9707 25.904 14.8745C25.6033 14.6741 25.2862 14.5005 24.956 14.3555C24.9039 14.3315 24.8375 14.3026 24.7901 14.3555C24.7427 14.4083 24.7901 14.466 24.7901 14.5237C24.9689 14.8914 25.1011 15.2806 25.1835 15.6819C25.2395 16.041 25.2601 16.4049 25.2451 16.7681C25.2451 16.9507 25.2451 16.9507 25.4016 16.9507H28.1176C28.293 16.9507 28.2835 16.9507 28.274 16.7681C28.259 16.4049 28.2797 16.041 28.3356 15.6819C28.418 15.2806 28.5502 14.8914 28.729 14.5237C28.729 14.466 28.7954 14.4132 28.729 14.3555C28.6627 14.2978 28.6153 14.3266 28.5631 14.3555C28.233 14.5005 27.9158 14.6741 27.6151 14.8745C27.4635 14.9707 27.4208 14.9658 27.3307 14.812Z" fill="white"/>
</g>
<defs>
<clipPath id="clip0_114:33">
<rect width="35" height="41" fill="white"/>
</clipPath>
</defs>
</svg>
