<svg width="29" height="29" viewBox="0 0 29 29" fill="none" xmlns="http://www.w3.org/2000/svg">
<path d="M28.908 27.4081C27.704 24.6315 26.1632 22.0039 24.3182 19.5811C26.3406 17.1148 27.2791 13.9742 26.9301 10.8407C26.581 7.70728 24.9725 4.83379 22.4536 2.84375C18.2398 -0.447301 13.2468 -0.146405 7.4669 0.210909C5.4356 0.335029 3.33839 0.46291 1.19855 0.436581C1.01962 0.4329 0.842227 0.469337 0.680184 0.543055C0.518142 0.616772 0.375822 0.725782 0.264304 0.861596C0.150401 0.996138 0.070133 1.15443 0.029782 1.32408C-0.0105691 1.49373 -0.00990843 1.67014 0.0317121 1.83951C0.508526 3.86679 0.807019 5.8828 1.12489 7.8311C1.98936 13.3902 2.73753 18.1894 6.93969 21.4955C9.11395 23.1913 11.8217 24.1126 14.6114 24.1058C17.5515 24.1108 20.3975 23.1001 22.6397 21.2548C24.2725 23.4438 25.6433 25.806 26.7255 28.2958C26.7856 28.4348 26.8733 28.561 26.9836 28.6672C27.094 28.7733 27.2248 28.8574 27.3686 28.9145C27.5124 28.9716 27.6664 29.0006 27.8218 29C27.9772 28.9994 28.1309 28.969 28.2742 28.9107C28.4175 28.8525 28.5476 28.7674 28.657 28.6603C28.7664 28.5532 28.853 28.4263 28.9118 28.2868C28.9707 28.1473 29.0006 27.9979 29 27.8471C28.9993 27.6963 28.9681 27.5472 28.908 27.4081ZM8.43991 19.7165C4.95103 16.9708 4.32303 12.999 3.46632 7.49635C3.22598 5.94674 2.97788 4.35575 2.6445 2.73467C4.34629 2.70835 6.00157 2.60679 7.61421 2.509C13.336 2.15921 17.4722 1.90721 20.965 4.6416C22.9217 6.1901 24.1998 8.4015 24.5408 10.829C24.8819 13.2565 24.2606 15.7191 22.8025 17.7193C19.6678 14.0819 15.8537 11.0513 11.5605 8.78644C11.285 8.6408 10.9611 8.60733 10.6601 8.69338C10.3592 8.77944 10.1057 8.97797 9.95564 9.24531C9.80553 9.51265 9.77103 9.82689 9.85972 10.1189C9.94841 10.4109 10.153 10.6568 10.4286 10.8024C14.5635 12.9844 18.2244 15.922 21.2092 19.4532C19.448 20.9382 17.2064 21.7776 14.8736 21.8257C12.5409 21.8738 10.2645 21.1275 8.43991 19.7165Z" fill="white"/>
</svg>
