<svg id="Layer_1" data-name="Layer 1" xmlns="http://www.w3.org/2000/svg" viewBox="0 0 24.61 27"><defs><style>.cls-1{fill:#fff;}</style></defs><path class="cls-1" d="M8,16v5H4a1,1,0,0,0-1,1v1a1,1,0,0,0,1,1h6a2,2,0,0,0,2-2V19.43L15,22v6a1,1,0,0,0,1,1h1a1,1,0,0,0,1-1V20l-4-3.39.74-2.39,3.44,1.2-.18.47,1.87.71-.72,1.87,5.61,2.14,2.85-7.47L22,11l-.71,1.87-.94-.36h0l-.93-.36-.18.47-3.61-1.26L16.72,7.9A3,3,0,1,0,13.78,7H7L3.75,13.2a1,1,0,0,0,.42,1.35l.89.47a1,1,0,0,0,1.35-.43L8.81,10H10Zm3,6a1,1,0,0,1-1,1H4V22H9V16.86l2,1.71Zm11.59-9.71,3.73,1.43-2.14,5.6-3.74-1.43ZM20.94,13.8l-.72,1.87-.93-.36v0a1,1,0,0,0,.31-.43l.33-.94a1.06,1.06,0,0,0,0-.43v0ZM19,13.59l-.33.94L15,13.27l.3-1ZM14,5a2,2,0,1,1,2,2A2,2,0,0,1,14,5ZM8.21,9,5.52,14.13l-.88-.47L7.6,8h8l-2.79,9L17,20.46V28H16V21.54L9.16,15.68,11.39,9H8.21Z" transform="translate(-3 -2)"/></svg>