<svg width="36" height="35" viewBox="0 0 36 35" fill="none" xmlns="http://www.w3.org/2000/svg">
<path d="M28.9244 23.9634C26.5442 24.3537 24.3479 25.4851 22.6483 27.1965C22.705 29.4286 23.4525 31.5881 24.7878 33.3775C23.6467 33.3775 22.5056 33.3775 21.4121 33.0923V27.4818C21.4121 27.1509 21.3469 26.8232 21.2202 26.5175C21.0936 26.2117 20.908 25.9339 20.674 25.6999C20.44 25.4659 20.1622 25.2803 19.8565 25.1537C19.5507 25.027 19.223 24.9619 18.8921 24.9619H6.29235C5.62402 24.9619 4.98306 25.2273 4.51048 25.6999C4.0379 26.1725 3.7724 26.8135 3.7724 27.4818V33.7579C2.76433 33.765 1.75893 33.6533 0.776987 33.4251C0.613057 33.3873 0.440812 33.4161 0.298146 33.5053C0.155479 33.5944 0.0540772 33.7366 0.016247 33.9005C-0.0215831 34.0645 0.00725742 34.2367 0.096424 34.3794C0.18559 34.5221 0.327779 34.6235 0.49171 34.6613C3.04978 35.2288 5.71475 35.0808 8.1942 34.2334C11.51 33.0547 15.1016 32.8892 18.5117 33.7579C21.3645 34.5014 24.3195 34.7744 27.2603 34.5662C29.6989 34.4236 32.1438 34.4236 34.5824 34.5662C34.6636 34.5727 34.7453 34.5631 34.8228 34.5379C34.9003 34.5127 34.972 34.4724 35.0339 34.4194C35.0957 34.3663 35.1465 34.3016 35.1832 34.2289C35.22 34.1562 35.242 34.0769 35.248 33.9956C35.2546 33.9106 35.2435 33.825 35.2154 33.7445C35.1872 33.6639 35.1428 33.59 35.0847 33.5275C35.0266 33.465 34.9562 33.4151 34.878 33.3812C34.7997 33.3472 34.7153 33.3297 34.6299 33.33H33.2511C34.4927 31.5915 35.188 29.5223 35.248 27.3867C33.55 25.6471 31.3289 24.5115 28.9244 24.1536V23.9634ZM28.3063 25.3898V33.2349H26.4044C24.9739 31.6764 24.1038 29.6854 23.932 27.5769C25.1808 26.4688 26.683 25.685 28.3063 25.2947V25.3898ZM29.59 25.3898C31.2133 25.7801 32.7155 26.5639 33.9643 27.672C33.8053 29.6911 33.0057 31.6068 31.6821 33.1398H29.59V25.3898ZM6.29235 26.1981H18.8921C19.2243 26.2104 19.5387 26.351 19.7693 26.5905C19.9998 26.8299 20.1285 27.1494 20.1283 27.4818V32.8545L18.8921 32.5693V27.4818H6.29235V33.4726H5.05615V27.4818C5.05592 27.1494 5.18463 26.8299 5.41519 26.5905C5.64575 26.351 5.96019 26.2104 6.29235 26.1981ZM7.5761 28.718H17.6084V32.284C14.3179 31.6669 10.9228 31.9293 7.76629 33.0447L7.5761 28.718Z" fill="white"/>
<path d="M24.6451 0L17.323 2.13958C17.2307 2.10695 17.13 2.10695 17.0377 2.13958L4.62812 17.3068C4.46554 17.2799 4.29921 17.2856 4.1389 17.3239C3.97859 17.3621 3.82755 17.432 3.69465 17.5295C3.56175 17.6269 3.44968 17.75 3.36503 17.8914C3.28038 18.0328 3.22486 18.1897 3.20173 18.3529C3.15223 18.6049 3.18569 18.8662 3.29712 19.0976C3.40855 19.329 3.59194 19.5181 3.81983 19.6366L7.00543 21.3958C6.61133 22.1023 6.35328 22.8764 6.24469 23.678H7.52844C7.72902 22.4928 8.34281 21.4169 9.26101 20.641C10.1792 19.8651 11.3425 19.4395 12.5446 19.4395C13.7467 19.4395 14.9099 19.8651 15.8281 20.641C16.7463 21.4169 17.3601 22.4928 17.5607 23.678H18.892C18.7347 22.6661 18.3376 21.7065 17.7338 20.8794C17.1299 20.0522 16.337 19.3816 15.4211 18.9234L22.6957 7.7025L27.165 11.6488V13.408C27.165 13.5846 27.2352 13.7539 27.36 13.8787C27.4848 14.0036 27.6542 14.0737 27.8307 14.0737C27.919 14.0737 28.0036 14.1088 28.066 14.1712C28.1285 14.2336 28.1635 14.3182 28.1635 14.4065C28.1635 14.4948 28.1285 14.5794 28.066 14.6419C28.0036 14.7043 27.919 14.7393 27.8307 14.7393C27.7424 14.7393 27.6578 14.7043 27.5954 14.6419C27.5329 14.5794 27.4979 14.4948 27.4979 14.4065H26.4043C26.382 14.5483 26.382 14.6927 26.4043 14.8344L23.8368 18.4479V22.2516H31.4442V18.4479L29.2571 15.3574C29.5096 15.021 29.6211 14.5995 29.5678 14.1822C29.5145 13.765 29.3007 13.3849 28.9718 13.1228H28.639V11.6488C28.8934 11.4994 29.0859 11.2639 29.1819 10.9848C29.2778 10.7058 29.2707 10.4016 29.162 10.1274L25.2632 0.427916C25.2153 0.302612 25.1306 0.194707 25.0203 0.118347C24.91 0.0419872 24.7792 0.000735696 24.6451 0ZM23.504 1.66412L22.2678 4.37426C22.0327 4.41009 21.8067 4.4908 21.6021 4.61199L19.0346 3.09051L23.504 1.66412ZM24.6451 2.13958L26.9749 8.17796L23.5515 5.135L24.6451 2.13958ZM17.6558 3.66106L20.7938 5.46782L11.7601 18.2102C10.7157 18.3596 9.73047 18.7865 8.90728 19.4464L5.95941 17.8774L17.6558 3.66106ZM22.4104 5.56291L14.1849 18.3529H13.234L22.2678 5.89574L22.4104 5.56291ZM27.165 15.928C27.4166 15.9734 27.6742 15.9734 27.9258 15.928L29.7325 18.4004H25.4534L27.165 15.928ZM24.9779 19.8268H30.208V21.1581H25.1681L24.9779 19.8268Z" fill="white"/>
<path d="M14.4703 22.4417H10.7141C10.5502 22.4417 10.393 22.5068 10.277 22.6227C10.1611 22.7386 10.096 22.8958 10.096 23.0598C10.096 23.2237 10.1611 23.3809 10.277 23.4968C10.393 23.6127 10.5502 23.6779 10.7141 23.6779H14.4703C14.6342 23.6779 14.7914 23.6127 14.9073 23.4968C15.0232 23.3809 15.0884 23.2237 15.0884 23.0598C15.0884 22.8958 15.0232 22.7386 14.9073 22.6227C14.7914 22.5068 14.6342 22.4417 14.4703 22.4417Z" fill="white"/>
</svg>
