<svg width="16" height="40" viewBox="0 0 16 40" fill="none" xmlns="http://www.w3.org/2000/svg">
<g clip-path="url(#clip0_114:82)">
<path d="M3.05594 6.8373C3.77627 5.79212 3.88541 5.77034 3.88541 5.77034C3.68309 5.71269 3.46752 5.72183 3.27083 5.79639C3.07414 5.87095 2.90689 6.00693 2.79401 6.18406C2.07368 7.22924 1.96454 7.25102 1.96454 7.25102C2.16702 7.30251 2.38051 7.29042 2.57584 7.21637C2.77118 7.14232 2.93884 7.00994 3.05594 6.8373Z" fill="white"/>
<path d="M0 32.6402L3.92906 36.5596C5.51137 38.1353 7.50979 39.2302 9.69168 39.7169L1.30969 31.3555L0 32.6402Z" fill="white"/>
<path d="M2.44476 30.2015L12.2674 40C13.0585 40.0042 13.848 39.9313 14.6248 39.7823L3.73262 28.9167L2.44476 30.2015Z" fill="white"/>
<path d="M10.8049 14.6543H10.1064V15.4817H9.27692V16.2003H10.1064V17.0277H10.3465V18.0947H10.5648V17.0277H10.8049V16.2003H11.6562V15.4817H10.8049V14.6543Z" fill="white"/>
<path d="M7.33423 25.302L15.7162 33.6635C15.2328 31.4916 14.1342 29.5039 12.5511 27.9368L8.62209 24.0173L7.33423 25.302Z" fill="white"/>
<path d="M4.88947 27.7627L15.7817 38.6283C15.93 37.8532 16.0031 37.0657 16 36.2766L6.17732 26.478L4.88947 27.7627Z" fill="white"/>
<path d="M5.98094 2.8961C6.18588 2.8961 6.35202 2.73037 6.35202 2.52593C6.35202 2.32149 6.18588 2.15576 5.98094 2.15576C5.776 2.15576 5.60986 2.32149 5.60986 2.52593C5.60986 2.73037 5.776 2.8961 5.98094 2.8961Z" fill="white"/>
<path d="M2.16097 9.77681L3.38334 12.7382L1.85537 15.8302C1.85537 15.8302 3.01226 18.1383 3.38334 20.2069C3.73259 22.2101 3.44882 25.3021 3.44882 25.3021L9.16779 22.4279C9.42672 22.8473 9.73445 23.2346 10.0846 23.5819L11.3724 24.8666L15.8254 20.4464L15.5416 20.1633C13.7517 18.4867 12.9877 16.9189 12.9877 14.8938V12.7382L14.1883 9.77681C14.2971 9.73287 14.3905 9.65769 14.4566 9.56079C14.5226 9.46389 14.5584 9.34962 14.5593 9.23245C14.5593 9.07652 14.4972 8.92698 14.3867 8.81673C14.2762 8.70647 14.1263 8.64453 13.97 8.64453C13.8137 8.64453 13.6638 8.70647 13.5532 8.81673C13.4427 8.92698 13.3806 9.07652 13.3806 9.23245C13.3769 9.29971 13.3866 9.36703 13.4091 9.43056C13.4316 9.49408 13.4664 9.55255 13.5116 9.60262C13.4255 9.85181 13.2787 10.0758 13.0844 10.2544C12.8901 10.433 12.6543 10.5607 12.3983 10.626C12.265 10.264 12.2059 9.87885 12.2247 9.49358C12.2434 9.1083 12.3396 8.73071 12.5075 8.38324C12.827 7.75154 13.3722 7.26213 14.0355 7.01143C13.5998 6.45716 13.3893 5.75954 13.4459 5.05746C13.5025 4.35537 13.8221 3.7003 14.341 3.22265C13.5028 3.06026 12.634 3.20729 11.8963 3.63636C11.5834 3.40418 11.3295 3.10195 11.1551 2.754C10.9807 2.40605 10.8907 2.02211 10.8922 1.6331C10.8924 1.4497 10.9144 1.26698 10.9577 1.08873C10.6731 1.20283 10.3694 1.26194 10.0627 1.26293C9.63493 1.2591 9.21616 1.13963 8.851 0.917239C8.48585 0.694848 8.18797 0.377857 7.98907 0C7.80723 0.279819 7.5583 0.509986 7.26483 0.669671C6.97135 0.829355 6.6426 0.913515 6.30831 0.914535C5.97691 0.914052 5.65102 0.829946 5.36096 0.670046C5.07091 0.510145 4.82612 0.279646 4.64937 0C4.80217 1.6331 4.30012 3.57104 2.90312 4.59445L3.2742 5.09527C3.50241 4.91829 3.721 4.72931 3.92904 4.52912C3.96126 4.48503 4.00424 4.44987 4.0539 4.42701C4.10357 4.40414 4.15827 4.39432 4.21281 4.39848C4.29895 4.40068 4.38095 4.4358 4.44188 4.49658C4.50281 4.55736 4.53802 4.63917 4.54023 4.7251C4.54299 4.76047 4.53861 4.79603 4.52736 4.82969C4.51612 4.86335 4.49823 4.89442 4.47474 4.92107C4.37813 5.1256 4.32605 5.34824 4.32195 5.57431C4.32108 5.79159 4.36569 6.00667 4.45292 6.20577L5.02045 5.94448C4.75851 5.37833 5.2169 4.83397 5.93723 4.2896C6.4611 3.89766 7.0068 3.54927 7.39971 3.54927C7.61286 3.55263 7.81633 3.6386 7.96707 3.78896C8.1178 3.93933 8.20398 4.1423 8.20735 4.35493C8.20735 4.85574 7.7053 5.24769 7.33423 5.48721C5.89357 6.37997 4.45292 7.05498 3.79807 8.62276C3.57189 9.17788 3.43913 9.76646 3.40517 10.3647C3.10828 10.161 2.88003 9.87263 2.75033 9.53729C2.80957 9.46416 2.85037 9.37792 2.86929 9.2858C2.88822 9.19369 2.88472 9.09839 2.85909 9.00791C2.83346 8.91742 2.78645 8.83439 2.722 8.76578C2.65755 8.69716 2.57754 8.64497 2.48869 8.61358C2.39984 8.58219 2.30474 8.57251 2.21136 8.58537C2.11799 8.59822 2.02907 8.63323 1.95206 8.68746C1.87506 8.74168 1.81221 8.81354 1.7688 8.897C1.72539 8.98046 1.70268 9.07309 1.70258 9.16712C1.76806 9.49374 1.92086 9.71149 2.16097 9.77681ZM6.26465 23.1029L4.23464 24.1263C4.27829 23.0158 4.30012 21.3609 4.08184 20.098C3.8199 18.6391 3.18689 17.0713 2.81581 16.2003H6.28648L6.26465 23.1029ZM6.96315 22.7545V15.4818H2.81581L4.10367 12.8688H7.94541V14.8938C7.94541 15.5035 7.94541 16.7665 8.03273 18.0947C8.12004 19.423 8.29466 20.6641 8.84037 21.8182L6.96315 22.7545ZM14.7994 20.4464L11.3724 23.865L10.5866 23.0811C9.2551 21.7529 8.88402 20.098 8.75305 18.0512C8.68757 17.0931 8.66574 16.0697 8.66574 14.8938V12.8688H12.2674V14.8938C12.2455 17.0278 13.0314 18.7262 14.7994 20.4464ZM4.43109 9.0147C5.08593 7.35983 7.18143 6.53239 8.14187 5.85738C8.4038 5.66141 8.9495 5.13881 8.92768 4.42025C8.9237 4.03456 8.76834 3.66578 8.49493 3.39304C8.22152 3.1203 7.85184 2.96532 7.46519 2.96135C6.70121 2.96135 5.56615 3.83234 5.08593 4.33315C4.96465 4.12534 4.77009 3.97008 4.54023 3.89766C4.96445 3.13814 5.23166 2.30147 5.32604 1.43713C5.65114 1.57377 5.99926 1.64765 6.35196 1.65487C6.93673 1.6616 7.50638 1.46962 7.96724 1.11051C8.53395 1.67848 9.30307 1.99947 10.1064 2.00327H10.3028C10.3793 2.82157 10.7704 3.57856 11.3943 4.11541H11.3069C10.9605 4.41153 10.6591 4.75627 10.412 5.13881C9.98031 5.80488 9.38721 6.35158 8.68757 6.72836C8.44356 6.86199 8.17734 6.95051 7.90176 6.98966C7.94518 7.2194 7.9671 7.45266 7.96724 7.68645C7.96565 8.1115 7.88421 8.53249 7.72713 8.9276L8.33832 9.16712C8.52239 8.69489 8.61856 8.19311 8.62209 7.68645V7.51225C9.23327 7.27273 10.1282 6.72836 10.9795 5.50898C11.678 4.50735 12.442 4.09363 13.0532 3.96298C12.9099 4.30258 12.8215 4.66271 12.7913 5.02994C12.7408 5.62943 12.854 6.23136 13.1187 6.77191C12.4942 7.18847 12.0211 7.79476 11.7694 8.50082C11.5178 9.20687 11.501 9.97505 11.7217 10.6913C11.4374 10.6516 11.1693 10.5353 10.9462 10.355C10.7232 10.1747 10.5536 9.93715 10.4556 9.66794C10.5761 9.5543 10.6468 9.39777 10.6521 9.23245C10.6521 9.07652 10.59 8.92698 10.4795 8.81673C10.369 8.70647 10.219 8.64453 10.0627 8.64453C9.90643 8.64453 9.75653 8.70647 9.646 8.81673C9.53547 8.92698 9.47338 9.07652 9.47338 9.23245C9.47111 9.31511 9.4876 9.39722 9.52162 9.47263C9.55564 9.54804 9.60631 9.61481 9.66983 9.66794C9.55104 9.97602 9.34144 10.241 9.06867 10.4278C8.7959 10.6147 8.47277 10.7147 8.14187 10.7147C7.81096 10.7147 7.48783 10.6147 7.21506 10.4278C6.94229 10.241 6.7327 9.97602 6.6139 9.66794C6.7344 9.5543 6.80501 9.39777 6.81035 9.23245C6.81035 9.07652 6.74826 8.92698 6.63773 8.81673C6.52721 8.70647 6.3773 8.64453 6.22099 8.64453C6.06469 8.64453 5.91478 8.70647 5.80425 8.81673C5.69373 8.92698 5.63163 9.07652 5.63163 9.23245C5.62937 9.31511 5.64586 9.39722 5.67988 9.47263C5.7139 9.54804 5.76456 9.61481 5.82809 9.66794C5.70852 9.97537 5.49868 10.2396 5.22605 10.4261C4.95342 10.6126 4.63069 10.7126 4.30012 10.7131C4.22666 10.7178 4.15291 10.7105 4.08184 10.6913C4.10782 10.1175 4.22573 9.55141 4.43109 9.0147ZM4.34378 11.3664C4.72349 11.3658 5.09724 11.2721 5.43218 11.0937C5.76712 10.9152 6.05298 10.6574 6.26465 10.343C6.47289 10.6607 6.75803 10.9211 7.09375 11.1C7.42947 11.2788 7.80494 11.3704 8.18552 11.3664C8.56524 11.3658 8.93899 11.2721 9.27393 11.0937C9.60886 10.9152 9.89473 10.6574 10.1064 10.343C10.3146 10.6607 10.5998 10.9211 10.9355 11.1C11.2712 11.2788 11.6467 11.3704 12.0273 11.3664C12.334 11.3654 12.6377 11.3063 12.9222 11.1922L12.4857 12.172H3.84173L3.427 11.1922C3.71916 11.3063 4.03001 11.3654 4.34378 11.3664Z" fill="white"/>
</g>
<defs>
<clipPath id="clip0_114:82">
<rect width="16" height="40" fill="white"/>
</clipPath>
</defs>
</svg>
