<svg width="39" height="38" viewBox="0 0 39 38" fill="none" xmlns="http://www.w3.org/2000/svg">
<g clip-path="url(#clip0_113:23)">
<path d="M10.0547 25.2344C10.8381 25.2344 11.6039 25.008 12.2553 24.584C12.9066 24.1599 13.4143 23.5571 13.7141 22.8519C14.0139 22.1467 14.0924 21.3707 13.9395 20.6221C13.7867 19.8734 13.4094 19.1858 12.8555 18.646C12.3015 18.1063 11.5958 17.7387 10.8274 17.5898C10.0591 17.4409 9.26267 17.5173 8.5389 17.8094C7.81514 18.1015 7.19652 18.5962 6.76129 19.2308C6.32605 19.8655 6.09375 20.6117 6.09375 21.375C6.09375 22.3986 6.51106 23.3802 7.25388 24.104C7.9967 24.8278 9.00418 25.2344 10.0547 25.2344ZM10.0547 18.7031C10.597 18.7031 11.1272 18.8598 11.5782 19.1534C12.0291 19.447 12.3806 19.8643 12.5881 20.3525C12.7957 20.8407 12.85 21.378 12.7442 21.8963C12.6384 22.4146 12.3772 22.8906 11.9937 23.2643C11.6102 23.638 11.1216 23.8924 10.5897 23.9955C10.0577 24.0986 9.50637 24.0457 9.0053 23.8435C8.50423 23.6413 8.07596 23.2988 7.77464 22.8594C7.47333 22.42 7.3125 21.9034 7.3125 21.375C7.3125 20.6664 7.60141 19.9868 8.11567 19.4857C8.62993 18.9846 9.32741 18.7031 10.0547 18.7031Z" fill="white"/>
<path d="M20.9747 4.17698C20.5577 3.77937 19.9957 3.55943 19.4123 3.56555C18.8289 3.57168 18.2719 3.80336 17.8638 4.20964L17.8486 4.22448L4.37836 18.0143C3.93917 18.5017 3.68436 19.1208 3.65625 19.7689V24.9939C4.00513 24.5458 4.41517 24.1463 4.875 23.8064V19.7689C4.90152 19.4256 5.03672 19.0989 5.26195 18.8337L18.7322 5.04683C18.9124 4.86879 19.1563 4.7654 19.4128 4.75821C19.6694 4.75102 19.9189 4.84058 20.1094 5.00823L33.735 18.8634C33.9621 19.1162 34.099 19.4339 34.125 19.7689V23.8034C34.5848 24.1433 34.9949 24.5429 35.3438 24.9909V19.7689C35.3157 19.1223 35.0521 18.5065 34.6003 18.0321L20.9747 4.17698Z" fill="white"/>
<path d="M21.3281 36.8125H17.6719V37.047C17.6709 37.3782 17.5906 37.7045 17.4373 38H21.5627C21.4094 37.7045 21.3291 37.3782 21.3281 37.047V36.8125Z" fill="white"/>
<path d="M28.9453 25.2344C29.7287 25.2344 30.4945 25.008 31.1459 24.584C31.7973 24.1599 32.305 23.5571 32.6047 22.8519C32.9045 22.1467 32.983 21.3707 32.8301 20.6221C32.6773 19.8734 32.3001 19.1858 31.7461 18.646C31.1922 18.1063 30.4864 17.7387 29.7181 17.5898C28.9497 17.4409 28.1533 17.5173 27.4295 17.8094C26.7058 18.1015 26.0871 18.5962 25.6519 19.2308C25.2167 19.8655 24.9844 20.6117 24.9844 21.375C24.9844 22.3986 25.4017 23.3802 26.1445 24.104C26.8873 24.8278 27.8948 25.2344 28.9453 25.2344ZM28.9453 18.7031C29.4877 18.7031 30.0178 18.8598 30.4688 19.1534C30.9197 19.447 31.2712 19.8643 31.4788 20.3525C31.6863 20.8407 31.7406 21.378 31.6348 21.8963C31.529 22.4146 31.2678 22.8906 30.8843 23.2643C30.5008 23.638 30.0122 23.8924 29.4803 23.9955C28.9484 24.0986 28.397 24.0457 27.8959 23.8435C27.3949 23.6413 26.9666 23.2988 26.6653 22.8594C26.364 22.42 26.2031 21.9034 26.2031 21.375C26.2031 20.6664 26.492 19.9868 27.0063 19.4857C27.5206 18.9846 28.218 18.7031 28.9453 18.7031Z" fill="white"/>
<path d="M33.0098 24.4922C32.743 24.8167 32.436 25.1079 32.0958 25.3591C32.6999 25.6515 33.2092 26.1011 33.5673 26.658C33.9254 27.215 34.1184 27.8576 34.125 28.5148V36.8273H23.7656V30.9908L26.0325 28.69C26.0922 28.6347 26.1398 28.5683 26.1724 28.4946C26.205 28.4209 26.222 28.3416 26.2222 28.2613C26.2225 28.1811 26.206 28.1017 26.1739 28.0278C26.1418 27.9539 26.0946 27.8872 26.0353 27.8315C25.9759 27.7759 25.9056 27.7326 25.8286 27.7042C25.7516 27.6758 25.6695 27.6629 25.5872 27.6663C25.5049 27.6696 25.4242 27.6892 25.3499 27.7238C25.2757 27.7584 25.2093 27.8074 25.155 27.8677L19.9753 33.1372C19.9258 33.1954 19.8554 33.2331 19.7784 33.2425C19.7014 33.2518 19.6236 33.2322 19.5609 33.1877L19.0095 32.7305C18.9556 32.6837 18.9206 32.6198 18.9106 32.5503C18.9005 32.4807 18.9161 32.4099 18.9546 32.3505L24.9478 25.9291C25.1941 25.7081 25.4698 25.5203 25.7674 25.3709C25.4272 25.1198 25.1202 24.8286 24.8534 24.5041C24.3655 24.8012 23.9337 25.1777 23.5767 25.6173L19.5 29.9844L15.3959 25.6055C15.0389 25.1659 14.6071 24.7893 14.1192 24.4922C13.8524 24.8167 13.5453 25.1079 13.2052 25.3591C13.5028 25.5085 13.7785 25.6962 14.0248 25.9172L18.6743 30.875C18.4232 31.1042 18.19 31.3513 17.9766 31.6142C17.9103 31.6999 17.8541 31.7925 17.809 31.8903L13.848 27.8677C13.7937 27.8074 13.7274 27.7584 13.6531 27.7238C13.5788 27.6892 13.4981 27.6696 13.4158 27.6663C13.3336 27.6629 13.2514 27.6758 13.1744 27.7042C13.0974 27.7326 13.0271 27.7759 12.9678 27.8315C12.9084 27.8872 12.8613 27.9539 12.8291 28.0278C12.797 28.1017 12.7806 28.1811 12.7808 28.2613C12.7811 28.3416 12.798 28.4209 12.8306 28.4946C12.8632 28.5683 12.9108 28.6347 12.9705 28.69L15.2344 30.9908V36.8125H4.875V28.5148C4.88013 27.8592 5.07088 27.2176 5.42623 26.6608C5.78158 26.104 6.28774 25.6536 6.88898 25.3591C6.55416 25.107 6.2523 24.8158 5.99016 24.4922C5.28068 24.9124 4.69361 25.5028 4.28502 26.2071C3.87642 26.9113 3.65994 27.7059 3.65625 28.5148V37.047C3.66026 37.3027 3.76794 37.5464 3.95576 37.7249C4.14357 37.9035 4.39628 38.0024 4.65867 38H15.4507C15.7131 38.0024 15.9658 37.9035 16.1536 37.7249C16.3414 37.5464 16.4491 37.3027 16.4531 37.047V32.2287L18.0893 33.8883C18.7901 34.6008 20.2434 34.6958 20.9107 33.8883L22.5469 32.2287V37.047C22.5509 37.3027 22.6586 37.5464 22.8464 37.7249C23.0342 37.9035 23.2869 38.0024 23.5493 38H34.3413C34.6037 38.0024 34.8564 37.9035 35.0442 37.7249C35.2321 37.5464 35.3397 37.3027 35.3438 37.047V28.5148C35.3401 27.7059 35.1236 26.9113 34.715 26.2071C34.3064 25.5028 33.7193 24.9124 33.0098 24.4922Z" fill="white"/>
<path d="M38.8324 18.8871L20.9838 0.501611L20.9411 0.463017C20.216 -0.157452 18.9454 -0.249483 17.9247 0.783642L0.170597 18.7802C0.104952 18.8339 0.051687 18.9006 0.0142834 18.9758C-0.0231203 19.0509 -0.0438202 19.133 -0.0464633 19.2165C-0.0491065 19.3 -0.0336334 19.3831 -0.00105538 19.4604C0.0315226 19.5376 0.080472 19.6074 0.142593 19.6649C0.204714 19.7225 0.278609 19.7667 0.359447 19.7946C0.440284 19.8224 0.526245 19.8333 0.611711 19.8266C0.697176 19.8199 0.780221 19.7956 0.855419 19.7555C0.930617 19.7154 0.996273 19.6602 1.0481 19.5936L18.8022 1.60599C19.3415 1.0627 19.8443 1.12208 20.1185 1.34177L37.9488 19.7035C38.062 19.8132 38.2139 19.8767 38.3736 19.8812C38.5332 19.8856 38.6886 19.8305 38.808 19.7272C38.8663 19.6737 38.9132 19.6094 38.946 19.5382C38.9787 19.467 38.9968 19.3901 38.999 19.3121C39.0013 19.234 38.9877 19.1563 38.9591 19.0834C38.9306 19.0105 38.8875 18.9438 38.8324 18.8871Z" fill="white"/>
<path d="M28.6406 6.72125C28.8022 6.72125 28.9572 6.65869 29.0715 6.54735C29.1858 6.436 29.25 6.28497 29.25 6.1275V3.5625H31.0781V9.5C31.0781 9.65747 31.1423 9.8085 31.2566 9.91985C31.3709 10.0312 31.5259 10.0938 31.6875 10.0938C31.8491 10.0938 32.0041 10.0312 32.1184 9.91985C32.2327 9.8085 32.2969 9.65747 32.2969 9.5V2.96875C32.2969 2.81128 32.2327 2.66026 32.1184 2.54891C32.0041 2.43756 31.8491 2.375 31.6875 2.375H28.6406C28.479 2.375 28.324 2.43756 28.2097 2.54891C28.0955 2.66026 28.0312 2.81128 28.0312 2.96875V6.1275C28.0312 6.28497 28.0955 6.436 28.2097 6.54735C28.324 6.65869 28.479 6.72125 28.6406 6.72125Z" fill="white"/>
<path d="M21.0234 18.4062C21.3467 18.4062 21.6567 18.2811 21.8852 18.0584C22.1138 17.8357 22.2422 17.5337 22.2422 17.2188V14.25C22.2422 13.9351 22.1138 13.633 21.8852 13.4103C21.6567 13.1876 21.3467 13.0625 21.0234 13.0625H17.9766C17.6533 13.0625 17.3433 13.1876 17.1148 13.4103C16.8862 13.633 16.7578 13.9351 16.7578 14.25V17.2188C16.7578 17.5337 16.8862 17.8357 17.1148 18.0584C17.3433 18.2811 17.6533 18.4062 17.9766 18.4062H21.0234ZM17.9766 14.25H21.0234V17.2188H17.9766V14.25Z" fill="white"/>
</g>
<defs>
<clipPath id="clip0_113:23">
<rect width="39" height="38" fill="white"/>
</clipPath>
</defs>
</svg>
