<svg id="Layer_1" data-name="Layer 1" xmlns="http://www.w3.org/2000/svg" viewBox="0 0 399 399"><defs><style>.cls-1{fill:#fff;}</style></defs><path class="cls-1" d="M360.27,356.69a39.91,39.91,0,0,0-44.82,0,25.1,25.1,0,0,1-19.57,3.82l33.54-102.17a7.22,7.22,0,0,0-4.69-9.13l-14.12-4.43v-67a7.18,7.18,0,0,0-7.19-7.19H257.89V124.31a7.21,7.21,0,0,0-7.18-7.19H217.06a7.18,7.18,0,0,0-7.19,7.19v46.24H164.34a7.18,7.18,0,0,0-7.19,7.19v67L143,249.21a7.21,7.21,0,0,0-4.69,9.13l33.29,101.41a18.77,18.77,0,0,1-19.12-1.84,37.55,37.55,0,0,0-45.37.61A7.19,7.19,0,1,0,116,369.84a23.1,23.1,0,0,1,27.94-.36,33,33,0,0,0,39.1.21,24.63,24.63,0,0,1,29.32.25c9,7.19,25.08,9.28,37.42-.1a25.53,25.53,0,0,1,29.52-.92,39.45,39.45,0,0,0,44.3-.35,25.34,25.34,0,0,1,28.55,0,7.16,7.16,0,0,0,10-1.89A7.24,7.24,0,0,0,360.27,356.69Zm-136-225.14h19.27v39H224.25v-39Zm-52.72,53.38h124.7v55.36L236,221.48a6.81,6.81,0,0,0-4.28,0l-60.21,18.86V184.93Zm69.54,173.44a16.74,16.74,0,0,1-20.09.05,38.83,38.83,0,0,0-36.5-5.56L173.36,319h9.08a7.19,7.19,0,0,0,0-14.38H168.62l-4.74-14.38h32.94a7.19,7.19,0,1,0,0-14.37H159.19l-4.94-15,79.63-25,79.64,24.93-30.75,93.55A39.86,39.86,0,0,0,241.07,358.37Z" transform="translate(-34.39 -63.81)"/><path class="cls-1" d="M233.89,462.81c-110,0-199.5-89.49-199.5-199.5s89.49-199.5,199.5-199.5,199.49,89.5,199.49,199.5S343.89,462.81,233.89,462.81Zm0-383c-101.19,0-183.5,82.32-183.5,183.5s82.31,183.5,183.5,183.5,183.49-82.32,183.49-183.5S335.07,79.81,233.89,79.81Z" transform="translate(-34.39 -63.81)"/></svg>